<svg width="330" height="500" viewBox="0 0 330 500" fill="none" xmlns="http://www.w3.org/2000/svg">
<mask id="mask0_4913_7965" style="mask-type:luminance" maskUnits="userSpaceOnUse" x="0" y="23" width="331" height="467">
<path d="M330.09 23H0V489.854H330.09V23Z" fill="white"/>
</mask>
<g mask="url(#mask0_4913_7965)">
<path d="M-78.8747 226.94C-61.146 218.377 -41.7289 216.809 -24.0003 221.151C-16.4023 204.507 -3.136 190.276 14.5926 181.714C32.3213 173.151 51.7383 171.583 69.467 175.925C77.065 159.281 90.3313 145.05 108.06 136.487C125.789 127.925 145.206 126.357 162.934 130.698C170.532 114.055 183.799 99.8241 201.527 91.2613C219.256 82.6985 238.673 81.1307 256.402 85.4724C264 68.8292 277.266 54.598 294.994 46.0352C335.517 26.4975 384.12 43.3819 403.658 83.9045C423.195 124.427 406.311 173.03 365.788 192.568C348.06 201.131 328.643 202.698 310.914 198.357C303.316 215 290.05 229.231 272.321 237.794C254.592 246.357 235.175 247.925 217.447 243.583C209.849 260.226 196.582 274.457 178.854 283.02C161.125 291.583 141.708 293.151 123.979 288.809C116.382 305.452 103.115 319.683 85.3866 328.246C67.6579 336.809 48.2408 338.377 30.5122 334.035C22.9142 350.678 9.64792 364.909 -8.08072 373.472C-48.6033 393.01 -97.2063 376.125 -116.744 335.603C-136.282 295.201 -119.277 246.477 -78.8747 226.94Z" fill="#FFFDCF"/>
</g>
<mask id="mask1_4913_7965" style="mask-type:luminance" maskUnits="userSpaceOnUse" x="-50" y="-4" width="331" height="467">
<path d="M280.09 -4H-50V462.854H280.09V-4Z" fill="white"/>
</mask>
<g mask="url(#mask1_4913_7965)">
<path d="M315.789 228.402C298.06 219.839 278.643 218.271 260.914 222.613C253.316 205.97 240.05 191.739 222.321 183.176C204.593 174.613 185.176 173.045 167.447 177.387C159.849 160.744 146.583 146.512 128.854 137.95C111.125 129.387 91.7083 127.819 73.9797 132.161C66.3817 115.517 53.1153 101.286 35.3867 92.7235C17.6581 84.1607 -1.759 82.5929 -19.4876 86.9346C-27.0856 70.2914 -40.3519 56.0602 -58.0806 47.4974C-98.4826 28.201 -147.206 45.206 -166.744 85.608C-186.282 126.131 -169.397 174.734 -128.875 194.271C-111.146 202.834 -91.7288 204.402 -74.0002 200.06C-66.4022 216.703 -53.1359 230.934 -35.4072 239.497C-17.6786 248.06 1.73849 249.628 19.4671 245.286C27.0651 261.929 40.3314 276.161 58.0601 284.723C75.7887 293.286 95.2058 294.854 112.934 290.512C120.532 307.156 133.799 321.387 151.527 329.949C169.256 338.512 188.673 340.08 206.402 335.738C214 352.382 227.266 366.613 244.995 375.176C285.517 394.713 334.12 377.829 353.658 337.306C373.316 296.543 356.311 247.94 315.789 228.402Z" fill="#FFFAEE"/>
</g>
<mask id="mask2_4913_7965" style="mask-type:luminance" maskUnits="userSpaceOnUse" x="-6" y="53" width="331" height="467">
<path d="M324.09 53H-6V519.854H324.09V53Z" fill="white"/>
</mask>
<g mask="url(#mask2_4913_7965)">
<path d="M70.2209 235.11C71.1857 208.216 63.9496 186.628 49.839 181.201C42.844 178.427 37.5375 172.638 36.4521 165.281C32.9546 141.884 21.6179 117.764 -4.55291 124.638C-30.8444 131.392 -29.0353 157.925 -20.7137 180.116C-18.0604 187.111 -19.8695 194.829 -24.6936 200.618C-34.3418 212.317 -30.1207 234.628 -16.2514 257.663C-12.0303 264.538 -12.1509 273.462 -16.975 279.975C-24.9348 290.829 -26.9851 310.729 -14.5629 328.578C-1.77904 346.909 21.4973 354.749 43.0853 349.08L62.7435 344.015C84.3315 338.347 100.854 320.256 103.146 298.065C105.316 276.477 93.8591 259.955 81.6782 254.407C74.3214 250.909 69.9797 243.311 70.2209 235.11Z" fill="#919E51"/>
</g>
<mask id="mask3_4913_7965" style="mask-type:luminance" maskUnits="userSpaceOnUse" x="-6" y="53" width="331" height="467">
<path d="M324.09 53H-6V519.854H324.09V53Z" fill="white"/>
</mask>
<g mask="url(#mask3_4913_7965)">
<path d="M70.3422 237.04L46.2216 316.156L36.8145 280.216C35.4879 274.909 35.4879 269.362 37.1763 264.055L59.9703 189.402C59.4879 188.799 59.0055 188.196 58.5231 187.593L33.7995 268.517L24.3924 232.578C23.0658 227.271 23.0658 221.724 24.7542 216.417L38.503 171.432C38.0206 170.588 37.6587 169.623 37.2969 168.658L21.3773 220.759L11.9703 184.819C10.6437 179.513 10.7643 173.965 12.3321 168.658L23.307 132.477C22.8246 131.874 22.3422 131.392 21.7392 130.789L8.83465 173L-3.82866 124.276C-4.19046 124.397 -4.43167 124.397 -4.79348 124.518C-5.15529 124.638 -5.3965 124.759 -5.75831 124.759L11.4879 190.97L-26.1402 154.668C-26.1402 155.633 -26.0196 156.598 -26.0196 157.563L6.54319 188.799C10.5231 192.658 13.297 197.482 14.7442 202.789L24.1512 238.729L-21.1955 195.07C-21.4367 195.673 -21.7985 196.276 -22.1603 196.879L18.9653 236.437C22.9452 240.296 25.7191 245.121 27.1663 250.427L36.5733 286.367L-28.4317 223.894L-29.1553 224.618C-29.0347 225.1 -28.9141 225.703 -28.9141 226.186L31.3874 284.196C35.3673 288.055 38.1412 292.879 39.5884 298.186L48.9954 334.125L-13.9593 273.703C-14.2005 274.427 -14.4417 275.03 -14.6829 275.754L43.6889 331.955C47.6688 335.814 50.4427 340.638 51.8899 345.945L69.3773 413.362L71.307 412.879L49.2366 327.975C47.91 322.668 47.91 317.12 49.5984 311.814L71.0658 241.502C70.5834 240.055 70.3422 238.608 70.3422 237.04Z" fill="#283B28"/>
</g>
<mask id="mask4_4913_7965" style="mask-type:luminance" maskUnits="userSpaceOnUse" x="0" y="33" width="331" height="467">
<path d="M330.09 33H0V499.854H330.09V33Z" fill="white"/>
</mask>
<g mask="url(#mask4_4913_7965)">
<path d="M327.317 143.834C312.844 154.809 303.558 170.005 299.699 186.407C282.935 185.683 265.689 190.628 251.337 201.603C236.864 212.578 227.578 227.774 223.719 244.176C206.955 243.452 189.709 248.397 175.357 259.372C160.885 270.347 151.598 285.543 147.739 301.945C130.975 301.221 113.729 306.166 99.3771 317.141C92.3821 322.447 86.7138 328.718 82.1309 335.593V469.944H334.432V325.703V312.196V139.131C332.02 140.578 329.608 142.146 327.317 143.834Z" fill="#5F7850"/>
</g>
<mask id="mask5_4913_7965" style="mask-type:luminance" maskUnits="userSpaceOnUse" x="0" y="33" width="331" height="467">
<path d="M330.09 33H0V499.854H330.09V33Z" fill="white"/>
</mask>
<g mask="url(#mask5_4913_7965)">
<path d="M271.356 190.749L334.432 469.945" stroke="#7D9E69" stroke-width="1.839" stroke-miterlimit="10"/>
</g>
<mask id="mask6_4913_7965" style="mask-type:luminance" maskUnits="userSpaceOnUse" x="0" y="33" width="331" height="467">
<path d="M330.09 33H0V499.854H330.09V33Z" fill="white"/>
</mask>
<g mask="url(#mask6_4913_7965)">
<path d="M271.356 190.749L334.432 469.945" stroke="#7D9E69" stroke-width="1.839" stroke-miterlimit="10"/>
</g>
<mask id="mask7_4913_7965" style="mask-type:luminance" maskUnits="userSpaceOnUse" x="0" y="33" width="331" height="467">
<path d="M330.09 33H0V499.854H330.09V33Z" fill="white"/>
</mask>
<g mask="url(#mask7_4913_7965)">
<path d="M312.12 159.271L334.432 428.698" stroke="#7D9E69" stroke-width="1.839" stroke-miterlimit="10"/>
</g>
<mask id="mask8_4913_7965" style="mask-type:luminance" maskUnits="userSpaceOnUse" x="0" y="33" width="331" height="467">
<path d="M330.09 33H0V499.854H330.09V33Z" fill="white"/>
</mask>
<g mask="url(#mask8_4913_7965)">
<path d="M249.648 202.93L327.92 469.945" stroke="#7D9E69" stroke-width="1.839" stroke-miterlimit="10"/>
</g>
<mask id="mask9_4913_7965" style="mask-type:luminance" maskUnits="userSpaceOnUse" x="0" y="33" width="331" height="467">
<path d="M330.09 33H0V499.854H330.09V33Z" fill="white"/>
</mask>
<g mask="url(#mask9_4913_7965)">
<path d="M226.131 234.769L324.543 469.945" stroke="#7D9E69" stroke-width="1.839" stroke-miterlimit="10"/>
</g>
<mask id="mask10_4913_7965" style="mask-type:luminance" maskUnits="userSpaceOnUse" x="0" y="33" width="331" height="467">
<path d="M330.09 33H0V499.854H330.09V33Z" fill="white"/>
</mask>
<g mask="url(#mask10_4913_7965)">
<path d="M223.719 244.176L322.613 469.944" stroke="#7D9E69" stroke-width="1.839" stroke-miterlimit="10"/>
</g>
<mask id="mask11_4913_7965" style="mask-type:luminance" maskUnits="userSpaceOnUse" x="0" y="33" width="331" height="467">
<path d="M330.09 33H0V499.854H330.09V33Z" fill="white"/>
</mask>
<g mask="url(#mask11_4913_7965)">
<path d="M195.859 248.397L318.392 469.945" stroke="#7D9E69" stroke-width="1.839" stroke-miterlimit="10"/>
</g>
<mask id="mask12_4913_7965" style="mask-type:luminance" maskUnits="userSpaceOnUse" x="0" y="33" width="331" height="467">
<path d="M330.09 33H0V499.854H330.09V33Z" fill="white"/>
</mask>
<g mask="url(#mask12_4913_7965)">
<path d="M177.286 257.925L309.467 469.945" stroke="#7D9E69" stroke-width="1.839" stroke-miterlimit="10"/>
</g>
<mask id="mask13_4913_7965" style="mask-type:luminance" maskUnits="userSpaceOnUse" x="0" y="33" width="331" height="467">
<path d="M330.09 33H0V499.854H330.09V33Z" fill="white"/>
</mask>
<g mask="url(#mask13_4913_7965)">
<path d="M305.246 264.919C314.17 248.156 316.341 232.236 309.105 224.397C305.487 220.537 303.919 215.11 305.608 210.045C310.673 194.125 311.035 175.311 292.221 171.452C273.527 167.593 266.412 185.08 264.723 201.723C264.241 207.03 260.623 211.251 255.799 213.422C246.03 217.884 241.809 233.321 243.376 252.256C243.859 257.924 241.085 263.472 235.899 266.125C227.457 270.467 219.979 282.527 222.392 297.723C224.804 313.281 237.105 325.462 252.542 328.718L266.653 331.613C282.09 334.748 298.251 328.357 306.572 314.97C314.653 301.944 312.603 287.955 306.452 280.598C302.954 276.256 302.472 269.985 305.246 264.919Z" fill="#B4C465"/>
</g>
<mask id="mask14_4913_7965" style="mask-type:luminance" maskUnits="userSpaceOnUse" x="0" y="33" width="331" height="467">
<path d="M330.09 33H0V499.854H330.09V33Z" fill="white"/>
</mask>
<g mask="url(#mask14_4913_7965)">
<path d="M304.643 266.125L264.724 308.819L270.03 283.13C270.754 279.271 272.683 275.774 275.216 273L312.844 232.718C312.724 232.115 312.603 231.633 312.482 231.03L271.598 274.688L276.904 249C277.628 245.141 279.558 241.643 282.09 238.869L304.764 214.628C304.764 213.904 304.764 213.181 304.884 212.457L278.593 240.558L283.899 214.869C284.623 211.01 286.553 207.512 289.085 204.739L307.296 185.201C307.176 184.718 307.055 184.236 306.814 183.633L285.467 206.427L292.583 171.573C292.342 171.573 292.1 171.452 291.859 171.452C291.618 171.452 291.377 171.332 291.136 171.332L281.487 218.608L268.824 183.754C268.583 184.357 268.221 184.96 267.98 185.563L278.834 215.593C280.161 219.211 280.402 223.191 279.678 226.93L274.372 252.618L259.176 210.889C258.814 211.251 258.452 211.492 257.97 211.734L271.719 249.603C273.045 253.221 273.286 257.201 272.563 260.94L267.256 286.628L245.548 226.688L244.824 226.93C244.703 227.291 244.583 227.653 244.462 228.015L264.603 283.492C265.93 287.11 266.171 291.09 265.447 294.829L260.141 320.517L239.156 262.628C238.794 262.99 238.432 263.352 238.07 263.713L257.608 317.502C258.935 321.12 259.176 325.1 258.452 328.839L248.563 377.08L249.889 377.321L262.312 316.537C263.035 312.678 264.965 309.181 267.497 306.407L302.955 268.538C303.92 268.176 304.281 267.09 304.643 266.125Z" fill="#283B28"/>
</g>
<mask id="mask15_4913_7965" style="mask-type:luminance" maskUnits="userSpaceOnUse" x="0" y="33" width="331" height="467">
<path d="M330.09 33H0V499.854H330.09V33Z" fill="white"/>
</mask>
<g mask="url(#mask15_4913_7965)">
<path d="M310.914 370.688C303.316 354.045 290.05 339.814 272.321 331.251C254.592 322.688 235.175 321.12 217.447 325.462C209.849 308.819 196.582 294.588 178.854 286.025C161.125 277.462 141.708 275.894 123.98 280.236C116.382 263.593 103.115 249.362 85.3866 240.799C67.6579 232.236 48.2409 230.668 30.5122 235.01C22.9142 218.367 9.64792 204.136 -8.08071 195.573C-10.4928 194.367 -12.9048 193.402 -15.4375 192.437V295.914V362.608V549.904H345.407V529.643V432.196V369.723C333.829 367.553 322.13 367.914 310.914 370.688Z" fill="#416142"/>
</g>
<mask id="mask16_4913_7965" style="mask-type:luminance" maskUnits="userSpaceOnUse" x="0" y="33" width="331" height="467">
<path d="M330.09 33H0V499.854H330.09V33Z" fill="white"/>
</mask>
<g mask="url(#mask16_4913_7965)">
<path d="M82.1307 239.472L26.4121 505.16" stroke="#5F7850" stroke-width="1.839" stroke-miterlimit="10"/>
</g>
<mask id="mask17_4913_7965" style="mask-type:luminance" maskUnits="userSpaceOnUse" x="0" y="33" width="331" height="467">
<path d="M330.09 33H0V499.854H330.09V33Z" fill="white"/>
</mask>
<g mask="url(#mask17_4913_7965)">
<path d="M67.2969 234.769L23.1562 502.99" stroke="#5F7850" stroke-width="1.839" stroke-miterlimit="10"/>
</g>
<mask id="mask18_4913_7965" style="mask-type:luminance" maskUnits="userSpaceOnUse" x="0" y="33" width="331" height="467">
<path d="M330.09 33H0V499.854H330.09V33Z" fill="white"/>
</mask>
<g mask="url(#mask18_4913_7965)">
<path d="M123.98 280.357L44.5029 505.161" stroke="#5F7850" stroke-width="1.839" stroke-miterlimit="10"/>
</g>
<mask id="mask19_4913_7965" style="mask-type:luminance" maskUnits="userSpaceOnUse" x="0" y="33" width="331" height="467">
<path d="M330.09 33H0V499.854H330.09V33Z" fill="white"/>
</mask>
<g mask="url(#mask19_4913_7965)">
<path d="M159.196 279.512L54.2715 504.919" stroke="#5F7850" stroke-width="1.839" stroke-miterlimit="10"/>
</g>
<mask id="mask20_4913_7965" style="mask-type:luminance" maskUnits="userSpaceOnUse" x="0" y="33" width="331" height="467">
<path d="M330.09 33H0V499.854H330.09V33Z" fill="white"/>
</mask>
<g mask="url(#mask20_4913_7965)">
<path d="M106.733 255.874L39.3164 504.919" stroke="#5F7850" stroke-width="1.839" stroke-miterlimit="10"/>
</g>
<mask id="mask21_4913_7965" style="mask-type:luminance" maskUnits="userSpaceOnUse" x="0" y="33" width="331" height="467">
<path d="M330.09 33H0V499.854H330.09V33Z" fill="white"/>
</mask>
<g mask="url(#mask21_4913_7965)">
<path d="M18.0901 215.834L5.42676 505.16" stroke="#5F7850" stroke-width="1.839" stroke-miterlimit="10"/>
</g>
<mask id="mask22_4913_7965" style="mask-type:luminance" maskUnits="userSpaceOnUse" x="0" y="33" width="331" height="467">
<path d="M330.09 33H0V499.854H330.09V33Z" fill="white"/>
</mask>
<g mask="url(#mask22_4913_7965)">
<path d="M39.3168 233.563L11.8193 505.161" stroke="#5F7850" stroke-width="1.839" stroke-miterlimit="10"/>
</g>
<mask id="mask23_4913_7965" style="mask-type:luminance" maskUnits="userSpaceOnUse" x="0" y="33" width="331" height="467">
<path d="M330.09 33H0V499.854H330.09V33Z" fill="white"/>
</mask>
<g mask="url(#mask23_4913_7965)">
<path d="M343.477 242.125C326.592 252.377 314.773 267.814 308.864 285.06C290.773 282.407 271.598 285.784 254.834 296.035C237.949 306.286 226.13 321.723 220.221 338.97C202.13 336.316 182.954 339.693 166.191 349.944C149.306 360.196 137.487 375.633 131.577 392.879C113.487 390.226 94.3112 393.603 77.5474 403.854C60.663 414.105 48.8439 429.542 42.9343 446.789C24.8439 444.135 5.66802 447.512 -11.0958 457.764C-12.543 458.608 -13.8697 459.573 -15.1963 460.537V492.256V499.733V576.919H345.648V430.99V407.593V241.04C344.803 241.402 344.08 241.764 343.477 242.125Z" fill="#283B28"/>
</g>
<mask id="mask24_4913_7965" style="mask-type:luminance" maskUnits="userSpaceOnUse" x="0" y="33" width="331" height="467">
<path d="M330.09 33H0V499.854H330.09V33Z" fill="white"/>
</mask>
<g mask="url(#mask24_4913_7965)">
<path d="M279.558 286.146L322.613 509.261" stroke="#416142" stroke-width="1.839" stroke-miterlimit="10"/>
</g>
<mask id="mask25_4913_7965" style="mask-type:luminance" maskUnits="userSpaceOnUse" x="0" y="33" width="331" height="467">
<path d="M330.09 33H0V499.854H330.09V33Z" fill="white"/>
</mask>
<g mask="url(#mask25_4913_7965)">
<path d="M254.834 296.156L318.392 509.261" stroke="#416142" stroke-width="1.839" stroke-miterlimit="10"/>
</g>
<mask id="mask26_4913_7965" style="mask-type:luminance" maskUnits="userSpaceOnUse" x="0" y="33" width="331" height="467">
<path d="M330.09 33H0V499.854H330.09V33Z" fill="white"/>
</mask>
<g mask="url(#mask26_4913_7965)">
<path d="M135.919 382.628L308.864 509.261" stroke="#416142" stroke-width="1.839" stroke-miterlimit="10"/>
</g>
<mask id="mask27_4913_7965" style="mask-type:luminance" maskUnits="userSpaceOnUse" x="0" y="33" width="331" height="467">
<path d="M330.09 33H0V499.854H330.09V33Z" fill="white"/>
</mask>
<g mask="url(#mask27_4913_7965)">
<path d="M87.6787 398.789L301.025 509.261" stroke="#416142" stroke-width="1.839" stroke-miterlimit="10"/>
</g>
<mask id="mask28_4913_7965" style="mask-type:luminance" maskUnits="userSpaceOnUse" x="0" y="33" width="331" height="467">
<path d="M330.09 33H0V499.854H330.09V33Z" fill="white"/>
</mask>
<g mask="url(#mask28_4913_7965)">
<path d="M70.1914 409.04L292.221 509.261" stroke="#416142" stroke-width="1.839" stroke-miterlimit="10"/>
</g>
<mask id="mask29_4913_7965" style="mask-type:luminance" maskUnits="userSpaceOnUse" x="0" y="33" width="331" height="467">
<path d="M330.09 33H0V499.854H330.09V33Z" fill="white"/>
</mask>
<g mask="url(#mask29_4913_7965)">
<path d="M42.8145 447.03L282.453 509.261" stroke="#416142" stroke-width="1.839" stroke-miterlimit="10"/>
</g>
<mask id="mask30_4913_7965" style="mask-type:luminance" maskUnits="userSpaceOnUse" x="0" y="33" width="331" height="467">
<path d="M330.09 33H0V499.854H330.09V33Z" fill="white"/>
</mask>
<g mask="url(#mask30_4913_7965)">
<path d="M7.83887 449.442L263.758 509.261" stroke="#416142" stroke-width="1.839" stroke-miterlimit="10"/>
</g>
<mask id="mask31_4913_7965" style="mask-type:luminance" maskUnits="userSpaceOnUse" x="0" y="33" width="331" height="467">
<path d="M330.09 33H0V499.854H330.09V33Z" fill="white"/>
</mask>
<g mask="url(#mask31_4913_7965)">
<path d="M308.864 285.06L327.92 509.261" stroke="#416142" stroke-width="1.839" stroke-miterlimit="10"/>
</g>
<mask id="mask32_4913_7965" style="mask-type:luminance" maskUnits="userSpaceOnUse" x="0" y="33" width="331" height="467">
<path d="M330.09 33H0V499.854H330.09V33Z" fill="white"/>
</mask>
<g mask="url(#mask32_4913_7965)">
<path d="M145.809 401.683C146.774 374.789 139.538 353.201 125.427 347.774C118.432 345 113.126 339.211 112.04 331.854C108.543 308.457 97.2063 284.337 71.0355 291.211C44.8646 298.085 46.6737 324.618 54.9953 346.688C57.6486 353.683 55.8395 361.402 51.0154 367.191C41.3672 378.889 45.5883 401.201 59.4576 424.236C63.6787 431.11 63.5581 440.035 58.734 446.548C50.7742 457.402 48.7239 477.301 61.146 495.151C73.9299 513.482 97.2063 521.321 118.794 515.653L138.453 510.588C160.04 504.919 176.563 486.829 178.855 464.638C181.025 443.05 169.568 426.527 157.387 420.98C149.91 417.482 145.568 409.884 145.809 401.683Z" fill="#919E51"/>
</g>
<mask id="mask33_4913_7965" style="mask-type:luminance" maskUnits="userSpaceOnUse" x="0" y="33" width="331" height="467">
<path d="M330.09 33H0V499.854H330.09V33Z" fill="white"/>
</mask>
<g mask="url(#mask33_4913_7965)">
<path d="M145.809 403.613L121.689 482.728L112.282 446.789C110.955 441.482 110.955 435.934 112.644 430.628L135.438 355.975C134.955 355.372 134.473 354.769 133.99 354.166L109.267 435.09L99.8597 399.151C98.5331 393.844 98.5331 388.296 100.222 382.99L113.97 338.005C113.488 337.161 113.126 336.196 112.764 335.231L96.8447 387.331L87.4376 351.392C86.111 346.085 86.2316 340.538 87.7994 335.231L98.7743 299.05C98.2919 298.447 97.8095 297.965 97.2065 297.362L84.3019 339.573L71.6386 290.849C71.2768 290.97 71.0356 290.97 70.6738 291.09C70.312 291.211 70.0708 291.332 69.709 291.332L86.9552 357.543L49.4477 321.241C49.4477 322.206 49.5683 323.171 49.5683 324.136L82.1311 355.372C86.111 359.231 88.8848 364.055 90.3321 369.362L99.7391 405.301L54.3924 361.643C54.1512 362.246 53.7894 362.849 53.4276 363.452L94.5532 403.01C98.5331 406.869 101.307 411.693 102.754 417L112.161 452.939L47.1562 390.467L46.4326 391.191C46.5532 391.673 46.6738 392.276 46.6738 392.759L106.975 450.769C110.955 454.628 113.729 459.452 115.176 464.759L124.583 500.698L61.7492 440.276C61.508 441 61.2668 441.603 61.0256 442.326L119.397 498.527C123.377 502.387 126.151 507.211 127.598 512.517L145.086 579.934L147.015 579.452L124.825 494.427C123.498 489.12 123.498 483.573 125.186 478.266L146.533 408.075C146.171 406.628 145.93 405.181 145.809 403.613Z" fill="#283B28"/>
</g>
<mask id="mask34_4913_7965" style="mask-type:luminance" maskUnits="userSpaceOnUse" x="0" y="33" width="331" height="467">
<path d="M330.09 33H0V499.854H330.09V33Z" fill="white"/>
</mask>
<g mask="url(#mask34_4913_7965)">
<path d="M53.3066 420.497C47.7589 399.03 37.0253 383.834 24.6031 382.749C18.4524 382.266 12.9047 378.889 10.2514 373.342C2.0504 355.734 -12.5426 339.332 -31.5978 350.91C-50.6531 362.367 -42.9345 382.869 -31.236 398.427C-27.4973 403.372 -27.1355 409.764 -29.5476 415.432C-34.3717 426.889 -25.9295 443.533 -9.52748 458.367C-4.58277 462.829 -2.65311 469.824 -4.94457 476.095C-8.68326 486.467 -5.54758 502.628 8.32175 513.844C22.6735 525.301 42.8142 526.025 58.4926 516.497L72.7237 507.935C88.4021 498.407 97.2061 480.316 93.8292 462.226C90.4523 444.739 77.6684 434.367 66.6936 432.92C60.3016 431.955 54.9951 426.889 53.3066 420.497Z" fill="#B4C465"/>
</g>
<mask id="mask35_4913_7965" style="mask-type:luminance" maskUnits="userSpaceOnUse" x="0" y="33" width="331" height="467">
<path d="M330.09 33H0V499.854H330.09V33Z" fill="white"/>
</mask>
<g mask="url(#mask35_4913_7965)">
<path d="M53.9091 421.945L53.4267 489.844L37.6277 463.673C35.3363 459.814 34.1303 455.352 34.1303 450.889L34.6127 386.728C34.1303 386.367 33.5272 386.005 33.0448 385.643L32.5624 455.231L16.7634 429.06C14.472 425.201 13.266 420.738 13.266 416.276L13.5072 377.683C12.9041 377.08 12.4217 376.477 11.9393 375.754L11.5775 420.497L-4.22147 394.326C-6.51293 390.467 -7.71896 386.005 -7.71896 381.543L-7.47775 350.427C-7.96016 350.065 -8.56318 349.824 -9.04559 349.462L-9.28679 385.764L-30.7541 350.427C-30.9953 350.548 -31.2365 350.668 -31.4777 350.789C-31.7189 350.909 -31.9601 351.03 -32.2014 351.271L-3.13605 399.392L-41.3672 379.613C-41.126 380.337 -40.8848 381.06 -40.6436 381.784L-7.71896 398.789C-3.73906 400.839 -0.362183 403.975 1.92928 407.834L17.7283 434.005L-28.2215 410.246C-28.3421 410.849 -28.3421 411.331 -28.4627 411.935L13.1454 433.522C17.1253 435.573 20.5021 438.708 22.7936 442.568L38.5926 468.738L-27.2566 434.608L-27.6184 435.331C-27.3772 435.693 -27.2566 436.176 -27.0154 436.538L34.0097 468.135C37.9896 470.186 41.3664 473.321 43.6579 477.181L59.4569 503.352L-4.10087 470.427C-4.10087 471.03 -4.10087 471.633 -4.22147 472.236L54.874 502.869C58.8539 504.919 62.2308 508.055 64.5222 511.914L94.0699 560.879L95.3966 560.035L58.4921 498.407C56.2006 494.548 54.9946 490.085 54.9946 485.623L55.477 425.321C54.7534 424.236 54.271 423.151 53.9091 421.945Z" fill="#283B28"/>
</g>
<mask id="mask36_4913_7965" style="mask-type:luminance" maskUnits="userSpaceOnUse" x="0" y="33" width="331" height="467">
<path d="M330.09 33H0V499.854H330.09V33Z" fill="white"/>
</mask>
<g mask="url(#mask36_4913_7965)">
<path d="M298.734 102.709L276.181 148.417L217.93 161.201L226.131 144.558L258.814 136.598L273.528 102.709H266.533L254.231 131.05L229.869 136.96L246.754 102.709H239.518L209.849 162.89L189.347 167.473L181.508 169.161L171.136 202.086L180.543 204.618L189.347 177.362L282.814 156.859L309.467 102.709H298.734Z" fill="#4F3514"/>
</g>
<mask id="mask37_4913_7965" style="mask-type:luminance" maskUnits="userSpaceOnUse" x="0" y="33" width="331" height="467">
<path d="M330.09 33H0V499.854H330.09V33Z" fill="white"/>
</mask>
<g mask="url(#mask37_4913_7965)">
<path d="M189.347 177.362L209.849 162.889L276.181 148.417L282.814 156.859L189.347 177.362Z" fill="#87531A"/>
</g>
<mask id="mask38_4913_7965" style="mask-type:luminance" maskUnits="userSpaceOnUse" x="0" y="33" width="331" height="467">
<path d="M330.09 33H0V499.854H330.09V33Z" fill="white"/>
</mask>
<g mask="url(#mask38_4913_7965)">
<path d="M226.131 144.558L254.231 131.05L258.814 136.598L226.131 144.558Z" fill="#87531A"/>
</g>
<mask id="mask39_4913_7965" style="mask-type:luminance" maskUnits="userSpaceOnUse" x="0" y="33" width="331" height="467">
<path d="M330.09 33H0V499.854H330.09V33Z" fill="white"/>
</mask>
<g mask="url(#mask39_4913_7965)">
<path d="M239.517 102.709L229.869 136.96L246.754 102.709H239.517Z" fill="#87531A"/>
</g>
<mask id="mask40_4913_7965" style="mask-type:luminance" maskUnits="userSpaceOnUse" x="0" y="33" width="331" height="467">
<path d="M330.09 33H0V499.854H330.09V33Z" fill="white"/>
</mask>
<g mask="url(#mask40_4913_7965)">
<path d="M31.2361 102.709L53.6682 148.417L111.919 161.201L103.718 144.558L71.0351 136.598L56.4421 102.709H63.4371L75.7386 131.05L100.1 136.96L83.216 102.709H90.4521L120 162.89L140.623 167.473L148.342 169.161L158.713 202.086L149.427 204.618L140.623 177.362L47.0351 156.859L20.3818 102.709H31.2361Z" fill="#4F3514"/>
</g>
<mask id="mask41_4913_7965" style="mask-type:luminance" maskUnits="userSpaceOnUse" x="0" y="33" width="331" height="467">
<path d="M330.09 33H0V499.854H330.09V33Z" fill="white"/>
</mask>
<g mask="url(#mask41_4913_7965)">
<path d="M140.623 177.362L120 162.889L53.6683 148.417L47.0352 156.859L140.623 177.362Z" fill="#87531A"/>
</g>
<mask id="mask42_4913_7965" style="mask-type:luminance" maskUnits="userSpaceOnUse" x="0" y="33" width="331" height="467">
<path d="M330.09 33H0V499.854H330.09V33Z" fill="white"/>
</mask>
<g mask="url(#mask42_4913_7965)">
<path d="M103.719 144.558L75.7387 131.05L71.0352 136.598L103.719 144.558Z" fill="#87531A"/>
</g>
<mask id="mask43_4913_7965" style="mask-type:luminance" maskUnits="userSpaceOnUse" x="0" y="33" width="331" height="467">
<path d="M330.09 33H0V499.854H330.09V33Z" fill="white"/>
</mask>
<g mask="url(#mask43_4913_7965)">
<path d="M90.452 102.709L100.1 136.96L83.2158 102.709H90.452Z" fill="#87531A"/>
</g>
<mask id="mask44_4913_7965" style="mask-type:luminance" maskUnits="userSpaceOnUse" x="0" y="33" width="331" height="467">
<path d="M330.09 33H0V499.854H330.09V33Z" fill="white"/>
</mask>
<g mask="url(#mask44_4913_7965)">
<path d="M187.899 205.462L202.854 192.196C206.11 189.301 210.332 187.734 214.673 187.734H227.819C228.904 187.734 229.507 188.94 228.784 189.784L213.105 208.116L192.603 215.834L187.899 205.462Z" fill="#4F3514"/>
</g>
<mask id="mask45_4913_7965" style="mask-type:luminance" maskUnits="userSpaceOnUse" x="0" y="33" width="331" height="467">
<path d="M330.09 33H0V499.854H330.09V33Z" fill="white"/>
</mask>
<g mask="url(#mask45_4913_7965)">
<path d="M220.583 187.734H214.553C210.211 187.734 205.99 189.301 202.734 192.196L187.779 205.462L188.985 208.116H197.91C200.925 208.116 203.819 206.789 205.87 204.497L220.583 187.734Z" fill="#87531A"/>
</g>
<mask id="mask46_4913_7965" style="mask-type:luminance" maskUnits="userSpaceOnUse" x="0" y="33" width="331" height="467">
<path d="M330.09 33H0V499.854H330.09V33Z" fill="white"/>
</mask>
<g mask="url(#mask46_4913_7965)">
<path d="M142.07 205.462L127.116 192.196C123.859 189.301 119.638 187.734 115.297 187.734H102.151C101.065 187.734 100.462 188.94 101.186 189.784L116.864 208.116L137.367 215.834L142.07 205.462Z" fill="#4F3514"/>
</g>
<mask id="mask47_4913_7965" style="mask-type:luminance" maskUnits="userSpaceOnUse" x="0" y="33" width="331" height="467">
<path d="M330.09 33H0V499.854H330.09V33Z" fill="white"/>
</mask>
<g mask="url(#mask47_4913_7965)">
<path d="M109.267 187.734H115.297C119.638 187.734 123.86 189.301 127.116 192.196L142.071 205.462L140.865 208.116H131.94C128.925 208.116 126.03 206.789 123.98 204.497L109.267 187.734Z" fill="#87531A"/>
</g>
<mask id="mask48_4913_7965" style="mask-type:luminance" maskUnits="userSpaceOnUse" x="0" y="33" width="331" height="467">
<path d="M330.09 33H0V499.854H330.09V33Z" fill="white"/>
</mask>
<g mask="url(#mask48_4913_7965)">
<path d="M184.643 430.869V505.161H158.955L133.869 366.588L184.643 430.869Z" fill="#C27727"/>
</g>
<mask id="mask49_4913_7965" style="mask-type:luminance" maskUnits="userSpaceOnUse" x="0" y="33" width="331" height="467">
<path d="M330.09 33H0V499.854H330.09V33Z" fill="white"/>
</mask>
<g mask="url(#mask49_4913_7965)">
<path d="M184.643 460.779V430.869L133.869 366.588L145.568 430.869L150.392 438.588L164.14 451.01L162.934 438.708L172.341 455.593L184.643 460.779Z" fill="#4F3514"/>
</g>
<mask id="mask50_4913_7965" style="mask-type:luminance" maskUnits="userSpaceOnUse" x="0" y="33" width="331" height="467">
<path d="M330.09 33H0V499.854H330.09V33Z" fill="white"/>
</mask>
<g mask="url(#mask50_4913_7965)">
<path d="M193.929 226.447V242.729L243.497 325.703L334.432 341.382V456.196H200.442L121.567 362.849L135.919 269.503V226.447H193.929Z" fill="#C27727"/>
</g>
<mask id="mask51_4913_7965" style="mask-type:luminance" maskUnits="userSpaceOnUse" x="0" y="33" width="331" height="467">
<path d="M330.09 33H0V499.854H330.09V33Z" fill="white"/>
</mask>
<g mask="url(#mask51_4913_7965)">
<path d="M176.924 208.115H152.924C147.859 208.115 143.276 211.01 141.226 215.593L137.97 222.708C133.387 232.718 136.281 244.538 145.085 251.171C145.568 251.533 145.809 251.653 145.809 251.653L147.135 256.96C149.186 265.04 156.422 270.829 164.864 270.829C173.186 270.829 180.542 265.161 182.593 256.96L183.919 251.653C183.919 251.653 184.16 251.533 184.643 251.171C193.447 244.538 196.341 232.718 191.758 222.708L188.502 215.593C186.573 211.01 181.99 208.115 176.924 208.115Z" fill="#87531A"/>
</g>
<mask id="mask52_4913_7965" style="mask-type:luminance" maskUnits="userSpaceOnUse" x="0" y="33" width="331" height="467">
<path d="M330.09 33H0V499.854H330.09V33Z" fill="white"/>
</mask>
<g mask="url(#mask52_4913_7965)">
<path d="M164.985 264.799H152.201L153.528 269.502C153.528 269.502 156.422 274.447 164.985 274.447C173.548 274.447 176.442 269.502 176.442 269.502L177.769 264.799H164.985Z" fill="#E3C09C"/>
</g>
<mask id="mask53_4913_7965" style="mask-type:luminance" maskUnits="userSpaceOnUse" x="0" y="33" width="331" height="467">
<path d="M330.09 33H0V499.854H330.09V33Z" fill="white"/>
</mask>
<g mask="url(#mask53_4913_7965)">
<path d="M164.985 264.799H152.201L153.528 269.502H176.442L177.648 264.799H164.985Z" fill="#1C1A18"/>
</g>
<mask id="mask54_4913_7965" style="mask-type:luminance" maskUnits="userSpaceOnUse" x="0" y="33" width="331" height="467">
<path d="M330.09 33H0V499.854H330.09V33Z" fill="white"/>
</mask>
<g mask="url(#mask54_4913_7965)">
<path d="M246.271 389.261L257.488 456.196H222.03L246.271 389.261Z" fill="#87531A"/>
</g>
<mask id="mask55_4913_7965" style="mask-type:luminance" maskUnits="userSpaceOnUse" x="0" y="33" width="331" height="467">
<path d="M330.09 33H0V499.854H330.09V33Z" fill="white"/>
</mask>
<g mask="url(#mask55_4913_7965)">
<path d="M229.146 341.382L263.759 350.306L250.734 334.507L303.558 336.075L243.497 325.703L234.09 309.905L212.985 295.915V327.271L206.593 312.317L207.799 330.769L192 348.98V315.09L188.502 351.754L161.97 380.337L147.497 354.407V322.568L141.105 348.136L134.11 336.317L137.367 310.508L130.854 333.06L130.372 305.201L117.829 365.141L131.698 401.08L152.563 424.115L147.497 404.216L157.266 424.115L169.688 437.985V425.563L177.286 443.291L200.442 456.196L199.115 420.618L200.925 399.995L229.146 341.382Z" fill="#87531A"/>
</g>
<mask id="mask56_4913_7965" style="mask-type:luminance" maskUnits="userSpaceOnUse" x="0" y="33" width="331" height="467">
<path d="M330.09 33H0V499.854H330.09V33Z" fill="white"/>
</mask>
<g mask="url(#mask56_4913_7965)">
<path d="M176.925 199.312H152.925C147.859 199.312 143.277 202.206 141.226 206.789L138.091 213.904C133.508 223.915 136.402 235.734 145.206 242.367C145.689 242.729 145.93 242.849 145.93 242.849L150.633 261.904H164.864H179.096L183.799 242.849C183.799 242.849 184.04 242.729 184.523 242.367C193.327 235.734 196.221 223.915 191.638 213.904L188.382 206.789C186.573 202.327 181.99 199.312 176.925 199.312Z" fill="#C27727"/>
</g>
<mask id="mask57_4913_7965" style="mask-type:luminance" maskUnits="userSpaceOnUse" x="0" y="33" width="331" height="467">
<path d="M330.09 33H0V499.854H330.09V33Z" fill="white"/>
</mask>
<g mask="url(#mask57_4913_7965)">
<path d="M176.924 199.312H152.924C148.462 199.312 144.361 201.724 141.949 205.462L146.17 206.306C146.17 206.306 148.824 209.442 153.165 212.095C157.748 214.869 160.16 220.055 159.316 225.362L156.06 248.276H173.427L170.17 225.362C169.447 220.055 171.859 214.869 176.321 212.095C180.663 209.442 183.316 206.306 183.316 206.306L187.537 205.462C185.607 201.724 181.507 199.312 176.924 199.312Z" fill="#87531A"/>
</g>
<mask id="mask58_4913_7965" style="mask-type:luminance" maskUnits="userSpaceOnUse" x="0" y="33" width="331" height="467">
<path d="M330.09 33H0V499.854H330.09V33Z" fill="white"/>
</mask>
<g mask="url(#mask58_4913_7965)">
<path d="M157.869 222.95L154.01 249" stroke="#87531A" stroke-width="0.724" stroke-miterlimit="10"/>
</g>
<mask id="mask59_4913_7965" style="mask-type:luminance" maskUnits="userSpaceOnUse" x="0" y="33" width="331" height="467">
<path d="M330.09 33H0V499.854H330.09V33Z" fill="white"/>
</mask>
<g mask="url(#mask59_4913_7965)">
<path d="M154.854 228.256L151.478 250.689" stroke="#87531A" stroke-width="0.724" stroke-miterlimit="10"/>
</g>
<mask id="mask60_4913_7965" style="mask-type:luminance" maskUnits="userSpaceOnUse" x="0" y="33" width="331" height="467">
<path d="M330.09 33H0V499.854H330.09V33Z" fill="white"/>
</mask>
<g mask="url(#mask60_4913_7965)">
<path d="M151.719 233.563L149.065 251.894" stroke="#87531A" stroke-width="0.724" stroke-miterlimit="10"/>
</g>
<mask id="mask61_4913_7965" style="mask-type:luminance" maskUnits="userSpaceOnUse" x="0" y="33" width="331" height="467">
<path d="M330.09 33H0V499.854H330.09V33Z" fill="white"/>
</mask>
<g mask="url(#mask61_4913_7965)">
<path d="M172.101 222.95L175.839 249" stroke="#87531A" stroke-width="0.724" stroke-miterlimit="10"/>
</g>
<mask id="mask62_4913_7965" style="mask-type:luminance" maskUnits="userSpaceOnUse" x="0" y="33" width="331" height="467">
<path d="M330.09 33H0V499.854H330.09V33Z" fill="white"/>
</mask>
<g mask="url(#mask62_4913_7965)">
<path d="M175.115 228.256L178.372 250.689" stroke="#87531A" stroke-width="0.724" stroke-miterlimit="10"/>
</g>
<mask id="mask63_4913_7965" style="mask-type:luminance" maskUnits="userSpaceOnUse" x="0" y="33" width="331" height="467">
<path d="M330.09 33H0V499.854H330.09V33Z" fill="white"/>
</mask>
<g mask="url(#mask63_4913_7965)">
<path d="M178.131 233.563L180.784 251.894" stroke="#87531A" stroke-width="0.724" stroke-miterlimit="10"/>
</g>
<mask id="mask64_4913_7965" style="mask-type:luminance" maskUnits="userSpaceOnUse" x="0" y="33" width="331" height="467">
<path d="M330.09 33H0V499.854H330.09V33Z" fill="white"/>
</mask>
<g mask="url(#mask64_4913_7965)">
<path d="M181.99 258.648L182.232 257.563C182.955 254.548 181.87 251.412 179.578 249.362C176.443 246.467 171.498 243.693 164.985 243.693C158.352 243.693 153.528 246.588 150.393 249.362C148.101 251.412 147.136 254.548 147.739 257.563L147.98 258.648C147.739 259.372 147.498 260.216 147.498 261.181C147.498 265.04 150.513 268.055 154.131 268.055H164.985H175.84C179.458 268.055 182.473 264.919 182.473 261.181C182.352 260.216 182.232 259.372 181.99 258.648Z" fill="#E3C09C"/>
</g>
<mask id="mask65_4913_7965" style="mask-type:luminance" maskUnits="userSpaceOnUse" x="0" y="33" width="331" height="467">
<path d="M330.09 33H0V499.854H330.09V33Z" fill="white"/>
</mask>
<g mask="url(#mask65_4913_7965)">
<path d="M164.985 260.578L164.865 268.055H158.714C158.834 268.055 163.779 265.643 164.985 260.578Z" fill="#C27727"/>
</g>
<mask id="mask66_4913_7965" style="mask-type:luminance" maskUnits="userSpaceOnUse" x="0" y="33" width="331" height="467">
<path d="M330.09 33H0V499.854H330.09V33Z" fill="white"/>
</mask>
<g mask="url(#mask66_4913_7965)">
<path d="M164.985 260.578L165.106 268.055H171.257C171.136 268.055 166.191 265.643 164.985 260.578Z" fill="#C27727"/>
</g>
<mask id="mask67_4913_7965" style="mask-type:luminance" maskUnits="userSpaceOnUse" x="0" y="33" width="331" height="467">
<path d="M330.09 33H0V499.854H330.09V33Z" fill="white"/>
</mask>
<g mask="url(#mask67_4913_7965)">
<path d="M172.101 249.965H157.87C155.94 249.965 154.131 251.171 153.528 253.101C152.684 255.513 152.684 257.925 152.684 257.925C156.784 264.196 165.106 264.799 165.106 264.799C165.106 264.799 173.427 264.196 177.528 257.925C177.528 257.925 177.407 255.513 176.684 253.101C175.839 251.171 174.03 249.965 172.101 249.965Z" fill="#4F3514"/>
</g>
<mask id="mask68_4913_7965" style="mask-type:luminance" maskUnits="userSpaceOnUse" x="0" y="33" width="331" height="467">
<path d="M330.09 33H0V499.854H330.09V33Z" fill="white"/>
</mask>
<g mask="url(#mask68_4913_7965)">
<path d="M164.985 262.025V268.055" stroke="#4F3514" stroke-width="0.67" stroke-miterlimit="10"/>
</g>
<mask id="mask69_4913_7965" style="mask-type:luminance" maskUnits="userSpaceOnUse" x="0" y="33" width="331" height="467">
<path d="M330.09 33H0V499.854H330.09V33Z" fill="white"/>
</mask>
<g mask="url(#mask69_4913_7965)">
<path d="M151.478 253.1L158.352 257.442L159.317 260.578" stroke="#E3C09C" stroke-width="0.67" stroke-miterlimit="10"/>
</g>
<mask id="mask70_4913_7965" style="mask-type:luminance" maskUnits="userSpaceOnUse" x="0" y="33" width="331" height="467">
<path d="M330.09 33H0V499.854H330.09V33Z" fill="white"/>
</mask>
<g mask="url(#mask70_4913_7965)">
<path d="M179.095 253.1L172.221 257.442L171.256 260.578" stroke="#E3C09C" stroke-width="0.67" stroke-miterlimit="10"/>
</g>
<mask id="mask71_4913_7965" style="mask-type:luminance" maskUnits="userSpaceOnUse" x="0" y="33" width="331" height="467">
<path d="M330.09 33H0V499.854H330.09V33Z" fill="white"/>
</mask>
<g mask="url(#mask71_4913_7965)">
<path d="M147.015 225.482L143.518 219.935L148.221 222.226L150.513 225.965L151.477 233.08L147.015 225.482Z" fill="#87531A"/>
</g>
<mask id="mask72_4913_7965" style="mask-type:luminance" maskUnits="userSpaceOnUse" x="0" y="33" width="331" height="467">
<path d="M330.09 33H0V499.854H330.09V33Z" fill="white"/>
</mask>
<g mask="url(#mask72_4913_7965)">
<path d="M150.513 226.93C150.513 229.704 148.945 231.874 147.015 231.874C145.085 231.874 143.518 229.583 143.518 226.93C143.518 224.156 145.085 221.985 147.015 221.985C148.945 221.864 150.513 224.156 150.513 226.93Z" fill="#1C1A18"/>
</g>
<mask id="mask73_4913_7965" style="mask-type:luminance" maskUnits="userSpaceOnUse" x="0" y="33" width="331" height="467">
<path d="M330.09 33H0V499.854H330.09V33Z" fill="white"/>
</mask>
<g mask="url(#mask73_4913_7965)">
<path d="M182.834 225.482L186.452 219.935L181.628 222.226L179.458 225.965L178.372 233.08L182.834 225.482Z" fill="#87531A"/>
</g>
<mask id="mask74_4913_7965" style="mask-type:luminance" maskUnits="userSpaceOnUse" x="0" y="33" width="331" height="467">
<path d="M330.09 33H0V499.854H330.09V33Z" fill="white"/>
</mask>
<g mask="url(#mask74_4913_7965)">
<path d="M179.337 226.93C179.337 229.704 180.905 231.874 182.834 231.874C184.764 231.874 186.332 229.583 186.332 226.93C186.332 224.156 184.764 221.985 182.834 221.985C180.905 221.864 179.337 224.156 179.337 226.93Z" fill="#1C1A18"/>
</g>
<mask id="mask75_4913_7965" style="mask-type:luminance" maskUnits="userSpaceOnUse" x="0" y="33" width="331" height="467">
<path d="M330.09 33H0V499.854H330.09V33Z" fill="white"/>
</mask>
<g mask="url(#mask75_4913_7965)">
<path d="M195.015 410.367L204.905 504.678L233.367 505.281L249.528 386.487L229.025 341.502L212.141 359.352C199.357 372.98 193.086 391.553 195.015 410.367Z" fill="#C27727"/>
</g>
<mask id="mask76_4913_7965" style="mask-type:luminance" maskUnits="userSpaceOnUse" x="0" y="33" width="331" height="467">
<path d="M330.09 33H0V499.854H330.09V33Z" fill="white"/>
</mask>
<g mask="url(#mask76_4913_7965)">
<path d="M342.995 447.754C357.226 430.869 363.497 413.261 357.226 402.528C354.09 397.221 353.608 390.709 356.623 385.402C366.271 368.518 371.095 347.171 350.713 338.246C330.331 329.322 318.03 347.533 312.241 365.985C310.432 371.895 305.246 375.874 299.337 377.201C287.156 379.854 278.593 396.377 275.819 418.327C274.975 424.96 270.392 430.628 264 432.317C253.387 435.211 241.93 447.151 240.965 465C239.879 483.332 250.975 500.216 267.859 507.573L283.176 514.206C299.94 521.563 319.839 518.186 332.623 504.92C345.045 492.015 346.01 475.613 340.824 465.844C337.688 459.935 338.653 452.819 342.995 447.754Z" fill="#B4C465"/>
</g>
<mask id="mask77_4913_7965" style="mask-type:luminance" maskUnits="userSpaceOnUse" x="0" y="33" width="331" height="467">
<path d="M330.09 33H0V499.854H330.09V33Z" fill="white"/>
</mask>
<g mask="url(#mask77_4913_7965)">
<path d="M342.03 448.96L286.312 487.794L298.493 459.814C300.302 455.713 303.196 452.095 306.935 449.563L359.518 412.899C359.518 412.296 359.518 411.573 359.518 410.97L302.473 450.769L314.653 422.789C316.463 418.688 319.357 415.07 323.096 412.538L354.814 390.467C354.935 389.623 355.176 388.899 355.417 388.055L318.754 413.623L330.935 385.643C332.744 381.543 335.638 377.924 339.377 375.392L364.824 357.543C364.824 356.94 364.704 356.337 364.704 355.734L334.915 376.477L351.437 338.608C351.196 338.487 350.955 338.367 350.714 338.246C350.473 338.126 350.231 338.005 349.99 338.005L327.558 389.502L321.528 346.809C321.045 347.412 320.563 348.015 320.201 348.739L325.387 385.522C325.99 389.985 325.387 394.568 323.578 398.668L311.397 426.648L304.282 375.512C303.799 375.754 303.317 375.995 302.714 376.236L309.226 422.668C309.829 427.13 309.226 431.713 307.417 435.814L295.236 463.794L284.985 390.467L284.141 390.588C283.9 390.95 283.779 391.432 283.538 391.794L293.066 459.814C293.669 464.276 293.066 468.859 291.256 472.96L279.076 500.939L269.186 430.025C268.704 430.387 268.221 430.628 267.739 430.99L277.025 496.96C277.628 501.422 277.025 506.005 275.216 510.105L252.302 562.568L253.749 563.171L282.573 497.08C284.382 492.98 287.277 489.362 291.015 486.829L340.462 452.336C340.704 451.01 341.307 450.045 342.03 448.96Z" fill="#283B28"/>
</g>
</svg>
