<svg width="367" height="396" viewBox="0 0 367 396" fill="none" xmlns="http://www.w3.org/2000/svg">
<path d="M52.0998 48.5001L42.7998 44.4001L50.8998 58.6001L48.5998 77.4001L42.0998 74.6001L47.6998 84.5001L40.1998 146.8L3.9998 178.5L-8.90019 172.1L-34.7002 159.2C-32.2002 141.8 -18.4002 102.2 -6.2002 69.3L-3.90019 70.3L4.9998 59.2001L-3.2002 61.3C0.699806 51 4.19981 41.7001 7.09981 34.4001L15.6998 34.2001L8.9998 29.5001C11.7998 22.4001 13.4998 18.2001 13.4998 18.2001L45.2998 0.300049L53.5998 36.0001L52.0998 48.5001Z" fill="#496F44"/>
<path d="M52.0996 48.5001L42.7996 44.4001L50.8996 58.6001L48.5996 77.4001L42.0996 74.6001L47.7996 84.4001L40.1996 146.7L3.9996 178.5L-8.90039 172.1L45.2996 0.300049L53.5996 36.0001L52.0996 48.5001Z" fill="#2F473A"/>
<path d="M69.137 82.9C69.137 82.9 65.637 77.7 59.037 78.8C52.437 79.8 49.137 87.7 54.037 116.6L60.537 115.5C60.537 115.5 58.237 108.2 57.737 100.9C57.337 94.8 58.537 90.9 64.737 89C70.737 87 69.137 82.9 69.137 82.9Z" fill="#E5A888"/>
<path d="M79.3369 87.4999C79.3369 86.9999 76.6369 87.4999 74.1369 86.4999C71.6369 85.4999 69.8369 82.8999 69.1369 82.8999C68.2369 82.8999 68.2369 87.5999 64.6369 88.8999C64.6369 88.8999 79.3369 88.5999 79.3369 87.4999Z" fill="#D4781E"/>
<path d="M26.2368 161.1C26.2368 161.1 11.6368 172.9 7.73682 180.2C6.73682 182.2 8.1368 225 9.5368 232.5C9.5368 232.5 16.7368 235.9 22.7368 239.7C22.7368 239.7 14.6368 240.1 10.1368 238C10.1368 238 11.9368 241.6 14.1368 244.1C14.1368 244.1 8.4368 243.5 3.5368 236C3.5368 236 3.7368 184.5 1.5368 181.6C0.436804 180.2 -4.56318 183.8 12.7368 157.8L26.2368 161.1Z" fill="#E5A888"/>
<path d="M47.937 161.1C47.937 161.1 33.337 172.9 29.437 180.2C28.437 182.2 29.837 225 31.237 232.5C31.237 232.5 38.437 235.9 44.437 239.7C44.437 239.7 36.337 240.1 31.837 238C31.837 238 33.637 241.6 35.837 244.1C35.837 244.1 30.137 243.5 25.237 236C25.237 236 25.437 184.5 23.237 181.6C22.137 180.2 15.137 184.4 34.437 157.8L47.937 161.1Z" fill="#382318"/>
<path d="M53.9371 116.6C53.9371 116.6 55.2371 126.8 51.8371 126.7C43.4371 126.4 38.9371 117.3 24.0371 116.9C14.6371 116.7 5.43707 127.4 -9.06293 139.6C-9.06293 139.6 -22.7629 124 -28.2629 124.1C-33.8629 124.1 -25.6629 130.7 -25.6629 130.7C-25.6629 130.7 -33.3629 129.3 -35.0629 132.1C-36.7629 134.9 -26.9629 136.3 -26.9629 136.3C-26.9629 136.3 -34.6629 134.4 -35.2629 139.6C-35.9629 144.8 -26.9629 144.3 -26.9629 144.3C-26.9629 144.3 -37.6629 147.1 -37.2629 150.4C-36.8629 153.7 -23.9629 152.8 -23.9629 152.8C-23.9629 152.8 -31.2629 160.8 -29.0629 163.6C-26.9629 166.4 -9.06293 155.8 -9.06293 155.8C-9.06293 155.8 13.3371 165.5 42.7371 164.1C67.3371 162.9 78.1371 143.5 60.4371 115.5L53.9371 116.6Z" fill="#442A1C"/>
<path d="M60.4367 115.4C60.4367 115.4 64.1367 118 63.8367 119.1C63.4367 120.1 60.4367 118 60.4367 118C60.4367 118 61.3367 120.6 60.4367 120.7C59.5367 120.8 58.1367 118.1 58.1367 118.1C58.1367 118.1 58.1367 121.8 57.2367 121.5C56.3367 121.2 55.8367 118.5 55.8367 118.5C55.8367 118.5 55.0367 121.5 54.1367 121.5C53.2367 121.5 53.9367 116.6 53.9367 116.6L60.4367 115.4Z" fill="#F3DFC9"/>
<path d="M61.437 84.8999C60.8847 84.8999 60.437 84.4522 60.437 83.8999C60.437 83.3476 60.8847 82.8999 61.437 82.8999C61.9893 82.8999 62.437 83.3476 62.437 83.8999C62.437 84.4522 61.9893 84.8999 61.437 84.8999Z" fill="#382318"/>
<path d="M78.9365 87.7C74.7365 88 70.5365 87.7 66.5365 86.7" stroke="#442A1C" stroke-width="0.5" stroke-miterlimit="10" stroke-linecap="round" stroke-linejoin="round"/>
<path d="M43.5371 156.6C38.9371 159.9 33.7371 162.4 28.3371 164" stroke="#382318" stroke-width="0.5" stroke-miterlimit="10" stroke-linecap="round" stroke-linejoin="round"/>
<path d="M32.2368 158.8C28.8368 160.8 25.2368 162.3 21.4368 163.2" stroke="#382318" stroke-width="0.5" stroke-miterlimit="10" stroke-linecap="round" stroke-linejoin="round"/>
<path d="M43.7368 161.4C41.8368 162.2 39.8368 162.9 37.9368 163.7" stroke="#382318" stroke-width="0.5" stroke-miterlimit="10" stroke-linecap="round" stroke-linejoin="round"/>
<path d="M22.5371 156.9C22.5371 156.9 0.837116 171.5 -0.862885 164.7C-0.862885 164.7 -9.2629 169.4 -12.0629 167.2C-13.9629 165.7 -13.2629 163.3 -13.2629 163.3C-13.2629 163.3 -19.2629 167.8 -21.6629 165.5C-23.7629 163.5 -9.06287 144.5 -0.162872 138.1L22.5371 156.9Z" fill="#F3DFC9"/>
<path d="M15.8369 150.6C13.6369 153.8 0.536896 164.1 -1.4631 164.9" stroke="#442A1C" stroke-width="0.5" stroke-miterlimit="10" stroke-linecap="round" stroke-linejoin="round"/>
<path d="M6.03711 146C-1.06289 149.8 -10.0629 157.1 -13.7629 164.3" stroke="#442A1C" stroke-width="0.5" stroke-miterlimit="10" stroke-linecap="round" stroke-linejoin="round"/>
<path d="M50.0369 123C58.5369 130.6 37.1369 154.4 18.6369 160.5C0.0369339 166.6 13.7369 153.8 13.7369 153.8C13.7369 153.8 1.73693 159.6 -0.46307 157.4C-2.66307 155.2 3.63694 149.7 3.63694 149.7C3.63694 149.7 -6.66307 153.8 -9.06308 150.9C-11.4631 148 2.23692 125.9 16.9369 120.7C24.9369 117.8 45.4369 119 50.0369 123Z" fill="#754F29"/>
<path d="M35.437 130.2C30.837 135 25.937 139.3 20.637 143.3" stroke="#382318" stroke-width="0.5" stroke-miterlimit="10" stroke-linecap="round" stroke-linejoin="round"/>
<path d="M24.6372 132.6C21.8372 134.4 19.0372 136.2 16.2372 137.9" stroke="#382318" stroke-width="0.5" stroke-miterlimit="10" stroke-linecap="round" stroke-linejoin="round"/>
<path d="M15.3369 130.6C13.5369 131.2 11.7369 131.9 9.93689 132.5" stroke="#382318" stroke-width="0.5" stroke-miterlimit="10" stroke-linecap="round" stroke-linejoin="round"/>
<path d="M122.6 256.9C131 268.1 137.2 281.4 148.3 289.9C166.4 303.7 191.5 300.9 213.9 304.6C227 306.8 239.5 311.4 252 316C263.5 320.2 275 324.5 286.5 328.7C301.6 334.3 316.9 339.9 330 349.2C349.9 363.2 364.1 385.5 366.7 409.6C252.4 390.4 135.7 386.1 20.2999 396.6C5.19986 398 -12.2001 398.7 -22.4001 387.6C-32.3001 376.8 -30.5001 360.1 -28.0001 345.7C-23.1001 316.7 -18.2001 287.8 -13.3001 258.8C-10.3001 241.2 -12.5001 208.4 9.19986 203.3C27.0999 199.1 53.8999 211.5 69.8999 218.3C89.9999 227 109.6 239.1 122.6 256.9Z" fill="#2F473A"/>
<path d="M148.8 380.6C148.8 380.6 182.3 295.1 226.3 279.6C226.3 279.6 186.2 287.1 161.1 323.9C161.1 323.9 172 300.1 170 282.5C170 282.5 156.5 297.4 156.2 303.6C156.2 303.6 152.7 265.6 158.8 259.1C158.8 259.1 149.1 270 139.5 296.4C130 322.8 130 322.8 130 322.8C130 322.8 119.9 298.5 119.6 274.3C119.3 250.1 119.3 250.1 119.3 250.1C119.3 250.1 100.4 303.5 99.7998 315.9C99.0998 328.3 91.7998 368.1 91.7998 368.1L149.6 382.7" fill="#C2C155"/>
<path d="M93.4994 178.3L78.6994 171.3L83.1994 183.5L64.6994 202.8L51.2994 197.8L55.5994 208.1L34.0994 232.8L21.9994 227L24.8994 239.5L-11.8006 284.9L-15.5006 254.3L-20.1006 216.4C-20.1006 216.4 34.0994 165.7 90.3994 143.8C92.5994 143 94.7994 142.2 96.8994 141.4L134.399 151.1L93.4994 178.3Z" fill="#C2C155"/>
<path d="M90.2995 143.8C42.2995 173.8 -4.40044 238.3 -15.5004 254.3L-20.1004 216.4C-20.2004 216.3 33.9995 165.6 90.2995 143.8Z" fill="#D6D35F"/>
<path d="M43.2002 380.2C42.4002 376.9 55.0002 268.9 68.2002 219L20.5002 318.6C20.5002 318.6 7.1002 222.4 -2.8998 198.9C-12.8998 175.5 -12.8998 175.5 -12.8998 175.5L-25.6998 288.9L-31.2998 377.2L43.2002 380.2Z" fill="#527F34"/>
<path d="M25.4785 251.524C25.4785 251.524 28.7957 247.212 31.3665 241.324C31.3665 241.324 36.4252 243.811 46.2938 240.08C57.6551 235.767 64.7871 223.991 71.5044 216.859C83.5291 204.088 99.6174 210.723 99.6174 210.723C99.6174 210.723 95.0563 216.859 95.0563 222.084C95.0563 222.084 80.2949 227.391 70.3433 241.324C60.3918 255.256 35.2642 260.895 25.4785 251.524Z" fill="#F3DFC9"/>
<path d="M96.4653 209.728C94.475 214.123 93.2311 218.933 92.8164 223.743" stroke="#382318" stroke-width="0.5" stroke-miterlimit="10" stroke-linecap="round" stroke-linejoin="round"/>
<path d="M91.2408 223.908C90.3285 219.264 90.5773 214.04 90.7432 209.147" stroke="#382318" stroke-width="0.5" stroke-miterlimit="10" stroke-linecap="round" stroke-linejoin="round"/>
<path d="M87.7582 223.908C85.1045 219.762 83.8605 214.703 83.0312 209.893" stroke="#382318" stroke-width="0.5" stroke-miterlimit="10" stroke-linecap="round" stroke-linejoin="round"/>
<path d="M83.6944 225.401C79.7967 222.416 76.6454 218.601 74.4893 214.123" stroke="#382318" stroke-width="0.5" stroke-miterlimit="10" stroke-linecap="round" stroke-linejoin="round"/>
<path d="M72.748 215.698C75.0701 220.923 77.8067 225.816 81.1239 230.46" stroke="#382318" stroke-width="0.5" stroke-miterlimit="10" stroke-linecap="round" stroke-linejoin="round"/>
<path d="M77.2262 233.943C72.831 231.372 69.3479 227.226 66.0308 223.328" stroke="#382318" stroke-width="0.5" stroke-miterlimit="10" stroke-linecap="round" stroke-linejoin="round"/>
<path d="M62.7134 227.143C65.45 231.538 68.6014 235.684 72.0844 239.582" stroke="#382318" stroke-width="0.5" stroke-miterlimit="10" stroke-linecap="round" stroke-linejoin="round"/>
<path d="M59.0649 231.289C60.143 237.094 61.4699 242.982 63.0455 248.621" stroke="#382318" stroke-width="0.5" stroke-miterlimit="10" stroke-linecap="round" stroke-linejoin="round"/>
<path d="M56.1621 234.026C57.2402 239.665 57.9865 245.47 58.4012 251.192" stroke="#382318" stroke-width="0.5" stroke-miterlimit="10" stroke-linecap="round" stroke-linejoin="round"/>
<path d="M51.8496 237.26C52.4301 242.65 53.0106 247.958 53.6741 253.348" stroke="#382318" stroke-width="0.5" stroke-miterlimit="10" stroke-linecap="round" stroke-linejoin="round"/>
<path d="M46.2935 240.08C46.2105 245.221 45.7959 250.363 45.2983 255.422" stroke="#382318" stroke-width="0.5" stroke-miterlimit="10" stroke-linecap="round" stroke-linejoin="round"/>
<path d="M42.0642 241.406C41.4007 246.465 40.3227 251.109 38.6641 255.919" stroke="#382318" stroke-width="0.5" stroke-miterlimit="10" stroke-linecap="round" stroke-linejoin="round"/>
<path d="M39.8246 241.904C38.0831 246.714 36.1757 251.524 33.522 255.836" stroke="#382318" stroke-width="0.5" stroke-miterlimit="10" stroke-linecap="round" stroke-linejoin="round"/>
<path d="M35.0152 242.07C32.1956 248.124 29.2931 251.856 27.8833 253.348" stroke="#382318" stroke-width="0.5" stroke-miterlimit="10" stroke-linecap="round" stroke-linejoin="round"/>
<path d="M85.3536 266.451C85.3536 266.451 71.8361 294.647 70.4263 306.174C69.0165 317.702 71.5044 339.014 77.3095 342.746C81.9535 345.732 82.6999 348.634 82.6999 348.634H70.4263C70.4263 348.634 58.2357 327.321 57.8211 316.623C57.3235 305.594 61.0553 288.759 61.0553 288.759L85.3536 266.451Z" fill="#F3DFC9"/>
<path d="M1.51178 310.404C1.51178 310.321 1.51178 310.321 1.51178 310.238C1.67764 308.662 2.58985 307.418 3.50208 306.174C4.33137 305.013 5.24359 303.852 5.74117 302.194C5.90703 301.779 5.98997 301.364 6.0729 300.867C6.23875 299.789 5.98997 296.969 5.65825 293.071C5.40946 290.832 5.2436 288.178 4.99481 285.359C4.58016 278.89 4.4143 271.427 5.57531 264.709L37.4202 283.534C37.0885 285.774 35.9275 289.671 35.9275 289.671C31.6981 301.033 16.4391 304.764 12.1267 310.486C11.5462 311.316 16.9366 341.502 19.4245 343.409C22.7417 345.897 23.4051 348.717 23.4051 348.717H11.6292C10.7999 347.639 1.42885 310.984 1.51178 310.404Z" fill="#F3DFC9"/>
<path d="M-24.1964 314.467C-23.7817 316.872 -23.0353 320.106 -22.2061 323.59C-22.0402 324.419 -21.7914 325.248 -21.6255 326.077C-20.9621 328.731 -20.2987 331.468 -19.5523 334.121C-19.0547 335.863 -18.6401 337.522 -18.1425 339.097C-16.7327 343.907 -15.4058 347.639 -14.5765 348.634H-2.80056C-2.80056 348.634 -4.54209 346.063 -7.1129 342.829C-7.27876 342.663 -7.44461 342.414 -7.61047 342.083C-8.43976 340.673 -9.43492 338.185 -10.4301 335.117C-10.8447 333.873 -11.2594 332.463 -11.674 331.053C-12.4204 328.648 -13.0838 326.077 -13.6643 323.672C-13.7472 323.175 -13.9131 322.76 -13.996 322.346C-14.5765 319.609 -15.0741 317.038 -15.24 315.048C-15.3229 314.301 -15.3229 313.638 -15.3229 313.057C-15.3229 312.975 -15.3229 312.809 -15.3229 312.726C-15.24 311.896 -14.7424 311.15 -13.996 310.487C-13.4155 309.989 -12.5862 309.491 -11.674 308.994C-10.6789 308.413 -9.43492 307.833 -8.10805 307.252C-7.44462 306.921 -6.78118 306.589 -6.03481 306.257C-3.96158 305.179 -1.72248 304.018 0.433681 302.443C0.848328 302.111 1.26297 301.862 1.59469 301.53C2.92156 300.452 4.1655 299.208 5.32651 297.798C6.07288 296.886 6.81924 295.891 7.39975 294.813C8.31197 293.32 9.05834 291.662 9.72178 289.837C10.3852 288.013 10.8828 285.94 11.2145 283.7C11.2145 283.7 13.8682 285.857 17.4342 288.593C18.3464 289.257 19.2587 289.92 20.1709 290.584C21.4978 291.579 22.9076 292.491 24.2344 293.486C25.2296 294.15 26.1418 294.73 27.054 295.311C29.3761 296.72 31.5322 297.798 33.1079 298.213C33.7713 298.379 34.3518 298.462 34.9323 298.545C39.9081 299.374 42.8936 298.462 42.8936 298.462C42.8936 298.462 42.4789 301.945 41.9813 306.34C41.8155 307.916 41.6496 309.574 41.4837 311.233C41.3179 313.389 41.0691 315.462 40.9862 317.37C40.9032 318.365 40.9032 319.36 40.8203 320.189C40.8203 320.521 40.8203 320.853 40.8203 321.185C40.8203 322.097 40.9032 323.341 41.152 324.833C41.235 325.663 41.4008 326.658 41.5667 327.57C41.8155 329.063 42.1472 330.638 42.4789 332.214C42.7277 333.375 42.9765 334.536 43.2253 335.697C43.6399 337.522 44.0546 339.263 44.5521 340.922C44.8839 342.249 45.2985 343.41 45.6302 344.571C46.2107 346.395 46.7912 347.888 47.2888 348.8H58.5672C58.5672 348.8 56.5769 345.897 54.2549 343.575C53.9231 343.244 53.6744 342.829 53.3426 342.166C53.0938 341.668 52.8451 341.088 52.5963 340.424C52.3475 339.678 52.0158 338.848 51.767 337.853C51.3523 336.444 51.0206 334.868 50.7718 333.126C50.6889 332.38 50.523 331.634 50.4401 330.887C50.2742 329.229 50.1084 327.57 50.0255 325.829C50.0255 325.414 50.0255 324.916 50.0255 324.502C50.0255 323.175 50.0255 321.765 50.1084 320.438C50.1084 320.023 50.1913 319.609 50.1913 319.111C50.2743 318.365 50.3572 317.702 50.4401 316.955C50.6889 315.545 50.9377 314.301 51.1865 313.057C51.5182 311.814 51.8499 310.652 52.2646 309.574C52.5134 308.828 52.8451 308.082 53.1768 307.418C53.6744 306.423 54.1719 305.428 54.7524 304.599C56.9915 301.116 59.977 298.462 63.7917 295.394C64.2893 294.979 64.7869 294.564 65.2845 294.15C65.7821 293.735 66.3626 293.237 66.9431 292.74C68.187 291.579 69.5968 290.335 71.0896 288.759C71.5042 288.344 71.9188 287.847 72.3335 287.432C74.4897 285.11 76.6458 282.291 78.802 279.056C79.3825 278.144 79.963 277.232 80.5435 276.237C82.2021 273.417 83.7777 270.183 85.2705 266.617C85.9339 265.041 86.5144 263.383 87.0949 261.641C88.8364 256.334 90.2462 250.28 90.9926 243.397L89.4999 220.425C89.4999 220.425 78.6361 222.416 74.1579 229.382C74.075 229.548 73.9921 229.63 73.9091 229.796C72.6652 231.87 70.7578 234.275 68.2699 236.762C67.1918 237.84 66.0309 238.919 64.8699 239.997C63.3771 241.324 61.8014 242.65 60.1429 243.894C59.2306 244.641 58.2355 245.304 57.2403 245.968C55.7476 247.046 54.1719 247.958 52.5963 248.87C51.4353 249.534 50.2743 250.114 49.1133 250.695C46.6254 251.856 44.1375 252.685 41.9813 253.017C41.3179 253.099 40.6545 253.182 39.991 253.182C39.9081 253.182 39.8251 253.182 39.7422 253.182C38.0836 253.182 35.5128 252.519 32.2786 251.607C31.6151 251.441 30.9517 251.192 30.2883 251.026C29.459 250.777 28.6297 250.529 27.7175 250.28C26.7223 250.031 25.7272 249.699 24.732 249.368C22.327 248.704 19.8392 247.958 17.2684 247.294C15.1122 246.797 12.956 246.299 10.7999 245.885C9.55592 245.636 8.22904 245.47 6.9851 245.304C4.24843 244.972 1.5947 244.889 -0.976116 244.972C-3.62986 245.138 -6.20067 245.636 -8.5227 246.465C-9.84957 246.963 -11.1764 247.626 -12.3374 248.455C-14.2448 249.782 -15.8205 251.524 -17.0644 253.68C-18.8889 256.748 -20.0499 260.563 -20.7133 264.627C-21.7914 271.344 -21.7085 278.808 -21.2938 285.276C-21.128 288.096 -20.8792 290.749 -20.6304 292.989C-20.2987 296.886 -19.9669 299.706 -20.2157 300.784C-20.2987 301.281 -20.4645 301.696 -20.5475 302.111C-21.128 303.769 -22.0402 305.013 -22.7866 306.091C-23.6988 307.335 -24.611 308.579 -24.7769 310.155C-24.7769 310.238 -24.7769 310.238 -24.7769 310.321C-24.7769 310.984 -24.5281 312.477 -24.1964 314.467Z" fill="#FBF2E7"/>
<path d="M47.3721 348.634H58.6505C58.6505 348.634 56.6602 345.732 54.3381 343.41C54.0064 343.078 53.7576 342.663 53.4259 342L47.3721 348.634Z" fill="#2A343D"/>
<path d="M68.3525 236.597C70.0111 240.992 72.2502 245.138 74.5722 249.202C77.8894 255.09 81.3725 261.227 85.3531 266.368C86.0165 264.793 86.597 263.134 87.1775 261.392C83.6116 254.178 80.3773 246.631 77.5577 239.084C76.3138 235.85 75.1528 232.533 74.2405 229.216C74.1576 229.382 74.0747 229.465 73.9918 229.63C72.7478 231.704 70.8404 234.109 68.3525 236.597Z" fill="black"/>
<path d="M41.6494 310.984C42.6446 311.233 43.6397 311.399 44.6349 311.565C46.8739 311.979 49.113 312.477 51.3521 312.809C51.6839 311.565 52.0156 310.404 52.4302 309.326C48.9472 308.33 45.5471 307.252 42.147 306.091C41.9811 307.667 41.8153 309.326 41.6494 310.984Z" fill="black"/>
<path d="M42.5615 332.048C42.8103 333.209 43.0591 334.37 43.3079 335.531C45.9616 334.868 48.4495 334.038 50.7716 333.043C50.6886 332.297 50.5227 331.551 50.4398 330.804C47.869 331.219 45.2153 331.716 42.5615 332.048Z" fill="black"/>
<path d="M44.6348 340.756C44.9665 342.083 45.3811 343.244 45.7129 344.405C48.1178 343.161 50.5228 341.751 52.596 340.341C52.3472 339.595 52.0155 338.766 51.7667 337.771C49.4447 338.766 47.0397 339.761 44.6348 340.756Z" fill="black"/>
<path d="M49.1959 250.529C46.708 251.69 44.2201 252.519 42.064 252.851C42.1469 253.017 42.1469 253.1 42.2298 253.265C44.0543 258.49 46.6251 263.383 49.113 268.193C53.9229 277.481 59.2303 287.349 65.45 293.901C65.9476 293.486 66.5281 292.989 67.1086 292.491C61.2206 280.964 55.9132 268.856 51.435 256.583C50.6057 254.592 49.8593 252.602 49.1959 250.529Z" fill="black"/>
<path d="M32.4443 251.524C33.0248 256.251 33.6053 260.978 34.7663 265.622C36.1761 271.095 38.2494 276.237 40.2397 281.296C43.9715 290.584 48.118 300.369 53.2596 307.253C53.7572 306.257 54.2548 305.262 54.8353 304.433C50.44 293.154 46.6253 281.379 43.5569 269.354C42.23 264.212 40.9861 258.905 40.1568 253.68C40.1568 253.514 40.0738 253.348 40.0738 253.1C39.9909 253.1 39.908 253.1 39.825 253.1C38.1665 253.1 35.5957 252.436 32.4443 251.524Z" fill="black"/>
<path d="M17.0193 270.515C17.7657 277.149 18.595 284.115 20.2536 290.335C21.5805 291.33 22.9903 292.242 24.3171 293.237C23.4049 283.037 23.239 272.671 23.6537 262.388C23.8196 257.992 24.1513 253.514 24.8976 249.285C22.4927 248.621 20.0048 247.875 17.434 247.211C16.8535 250.114 16.4388 253.099 16.273 256.085C15.9413 260.895 16.4388 265.705 17.0193 270.515Z" fill="black"/>
<path d="M6.23856 265.788C6.32149 270.598 6.32149 275.491 7.23371 280.218C7.81422 283.452 8.72644 286.603 9.7216 289.672C10.385 287.847 10.8826 285.774 11.2143 283.535C11.2143 283.535 13.8681 285.691 17.434 288.428C17.1852 287.764 17.0194 287.184 16.7706 286.52C15.4437 282.208 14.5315 277.647 13.7851 273.169C12.2924 264.212 11.2973 255.09 10.8826 245.968C9.63867 245.719 8.3118 245.553 7.06786 245.387C6.15563 251.773 6.15563 258.905 6.23856 265.788Z" fill="black"/>
<path d="M40.9858 320.024C44.1372 320.355 47.2885 320.438 50.191 320.273C50.191 319.858 50.2739 319.443 50.2739 318.946C47.2056 318.448 44.1372 317.868 41.1517 317.204C41.0688 318.199 40.9858 319.111 40.9858 320.024Z" fill="black"/>
<path d="M41.2349 324.585C41.3178 325.414 41.4837 326.409 41.6495 327.321C44.635 326.907 47.4545 326.409 50.0254 325.58C50.0254 325.165 50.0254 324.668 50.0254 324.253C47.1228 324.502 44.2203 324.585 41.2349 324.585Z" fill="black"/>
<path d="M-20.6304 264.627C-19.6352 266.949 -18.5571 269.188 -17.562 271.427C-12.3374 282.705 -6.6153 294.647 0.267839 302.194C0.682486 301.862 1.09713 301.613 1.42885 301.282C-4.95672 287.681 -10.5959 273.417 -15.3229 258.905C-15.9034 257.163 -16.4839 255.422 -16.9815 253.597C-18.8059 256.748 -19.9669 260.563 -20.6304 264.627Z" fill="black"/>
<path d="M52.6792 248.787C53.6744 251.358 54.7524 253.929 55.8305 256.5C60.4746 267.612 65.4503 279.471 71.1724 288.593C71.5871 288.179 72.0017 287.681 72.4164 287.267C66.8601 273.583 61.7185 259.734 57.3233 245.885C55.7476 246.88 54.2549 247.875 52.6792 248.787Z" fill="black"/>
<path d="M-8.43994 246.465C-8.35701 248.704 -8.19116 250.944 -7.85944 253.183C-7.11307 258.905 -5.62034 264.461 -4.12761 269.934C-1.5568 279.554 1.26279 289.589 5.32633 297.55C6.0727 296.638 6.81906 295.643 7.39957 294.564C4.49704 282.871 2.17503 270.93 0.516438 258.988C-0.146997 254.344 -0.644584 249.617 -0.893372 244.973C-3.54711 245.139 -6.11792 245.636 -8.43994 246.465Z" fill="black"/>
<path d="M60.2256 243.728C60.4744 244.392 60.7232 245.055 60.9719 245.802C62.9623 250.777 65.3672 255.338 67.8551 259.9C71.3381 266.451 74.987 273.251 78.9676 278.89C79.5481 277.978 80.1286 277.066 80.7091 276.071C76.3139 267.28 72.1674 258.158 68.4356 248.87C67.2746 245.884 66.1136 242.982 65.0355 239.914C63.4598 241.24 61.8842 242.484 60.2256 243.728Z" fill="black"/>
<path d="M26.4735 281.793C26.5564 286.189 26.7223 290.584 27.1369 295.062C29.459 296.472 31.6151 297.55 33.1908 297.965C33.8542 298.13 34.4347 298.213 35.0152 298.296C34.6835 296.223 34.3518 294.067 34.0201 291.994C32.0298 278.31 30.8688 264.544 30.3712 250.861C29.5419 250.612 28.7126 250.363 27.8004 250.114C26.0588 259.402 26.2247 270.93 26.4735 281.793Z" fill="black"/>
<path d="M11.5465 284.115C11.6295 281.129 11.6295 278.144 11.049 275.159C10.4685 272.256 9.22452 269.354 7.06836 267.28" stroke="#F3DFC9" stroke-width="0.5" stroke-miterlimit="10" stroke-linecap="round" stroke-linejoin="round"/>
<path d="M46.1281 277.397C43.7232 281.129 41.8158 285.359 41.567 289.754C41.4011 292.739 42.0646 295.808 42.9768 298.627" stroke="#F3DFC9" stroke-width="0.5" stroke-miterlimit="10" stroke-linecap="round" stroke-linejoin="round"/>
<path d="M58.8159 299.706C61.3867 296.14 63.9575 292.491 65.9479 288.51C67.9382 284.53 69.348 280.218 69.4309 275.822" stroke="#F3DFC9" stroke-width="0.5" stroke-miterlimit="10" stroke-linecap="round" stroke-linejoin="round"/>
<path d="M42.7278 252.934C37.0886 254.426 31.2006 254.675 25.4785 253.846" stroke="#F3DFC9" stroke-width="0.5" stroke-miterlimit="10" stroke-linecap="round" stroke-linejoin="round"/>
<path d="M41.3181 276.9C38.6644 280.3 36.5082 283.949 34.8496 287.847" stroke="#754F29" stroke-width="0.5" stroke-miterlimit="10" stroke-linecap="round" stroke-linejoin="round"/>
<path d="M35.0151 277.315C33.3565 279.139 31.8638 281.13 30.8687 283.369" stroke="#754F29" stroke-width="0.5" stroke-miterlimit="10" stroke-linecap="round" stroke-linejoin="round"/>
<path d="M0.765768 293.403C-2.13676 294.896 -4.95636 296.389 -7.85889 297.882" stroke="#754F29" stroke-width="0.5" stroke-miterlimit="10" stroke-linecap="round" stroke-linejoin="round"/>
<path d="M84.6075 228.221C84.6075 228.221 82.9489 225.401 81.7879 222.83C80.2951 219.513 74.6559 218.352 74.6559 218.352C74.6559 218.352 74.1584 224.655 76.7292 225.733C79.3 226.811 80.7098 228.635 81.3732 229.796L84.6075 228.221Z" fill="#FBF2E7"/>
<path d="M81.8709 226.977C81.8709 226.977 81.2904 224.572 80.3782 223.079C79.466 221.587 77.061 219.928 75.4854 219.596" stroke="#754F29" stroke-width="0.5" stroke-miterlimit="10" stroke-linecap="round" stroke-linejoin="round"/>
<path d="M76.4804 219.928C76.4804 219.928 76.1487 222.664 76.6462 223.66C77.1438 224.655 81.7879 226.396 81.7879 226.396C81.7879 226.396 81.3732 224.157 80.3781 222.996C79.3829 221.918 77.3926 220.259 76.4804 219.928Z" fill="#754F29"/>
<path d="M93.3154 225.816C93.3154 225.816 94.974 222.996 96.135 220.425C97.6278 217.108 103.267 215.947 103.267 215.947C103.267 215.947 103.765 222.25 101.194 223.328C98.6229 224.406 97.2131 226.231 96.5497 227.392L93.3154 225.816Z" fill="#FBF2E7"/>
<path d="M95.9688 224.572C95.9688 224.572 96.5492 222.167 97.4615 220.674C98.3737 219.181 100.779 217.523 102.354 217.191" stroke="#754F29" stroke-width="0.5" stroke-miterlimit="10" stroke-linecap="round" stroke-linejoin="round"/>
<path d="M101.442 217.523C101.442 217.523 101.774 220.26 101.276 221.255C100.779 222.25 96.1348 223.991 96.1348 223.991C96.1348 223.991 96.5494 221.752 97.5446 220.591C98.4568 219.513 100.53 217.855 101.442 217.523Z" fill="#754F29"/>
<path d="M82.5342 247.543C85.188 249.534 89.1686 256.914 89.1686 256.914C93.0663 258.407 97.0469 255.753 99.3689 253.597C99.6177 253.348 99.9494 253.1 100.115 252.851C100.945 252.021 101.525 251.358 101.525 251.358C101.193 248.704 101.608 245.221 102.189 242.07C102.271 241.738 102.271 241.489 102.354 241.158C102.437 240.577 102.52 239.997 102.686 239.499C102.686 239.25 102.769 239.084 102.769 238.836C103.101 236.928 103.432 235.436 103.432 234.523C103.515 231.787 99.0372 222.167 96.3005 220.591C95.5542 220.177 94.2273 219.928 92.6516 219.928C91.7394 219.928 90.7442 220.011 89.7491 220.094C86.1831 220.508 82.3684 221.669 81.622 223.162C78.8853 228.469 78.6365 244.641 82.5342 247.543Z" fill="#FBF2E7"/>
<path d="M90.661 244.724C90.661 244.724 80.2119 242.153 81.6217 235.021C81.6217 235.021 78.1387 238.338 81.5388 241.821C85.5194 245.885 88.8366 245.304 90.661 244.724Z" fill="black"/>
<path d="M83.115 236.265C83.115 236.265 84.3589 239.665 89.003 241.075C89.003 241.075 86.1005 241.655 84.1102 239.914C82.6174 238.504 82.4516 237.094 83.115 236.265Z" fill="black"/>
<path d="M100.613 241.406C101.028 241.655 101.526 241.904 102.189 242.07C102.272 241.738 102.272 241.489 102.355 241.158C101.277 241.407 100.613 241.406 100.613 241.406Z" fill="black"/>
<path d="M101.359 239.416C101.359 239.416 101.857 239.499 102.603 239.499C102.603 239.25 102.686 239.084 102.686 238.835C102.355 239.084 101.857 239.25 101.359 239.416Z" fill="black"/>
<path d="M89.749 220.259C89.832 220.591 89.9978 221.006 90.0807 221.338C93.315 231.372 96.7151 244.807 99.3688 253.597C99.7835 255.007 100.198 256.251 100.613 257.412C100.613 256.334 100.447 254.758 100.115 252.851C99.2859 246.88 97.2956 237.923 95.4711 230.791C94.5589 227.308 93.7296 223.742 92.5686 220.094C91.7393 220.011 90.7442 220.094 89.749 220.259Z" fill="black"/>
<path d="M97.7931 223.66C97.7931 223.66 90.3295 222.25 83.5293 226.479C83.5293 226.479 85.7684 222.747 90.2466 221.918C93.5637 221.255 97.2126 222.333 97.7931 223.66Z" fill="black"/>
<path d="M99.5349 227.143C99.5349 227.143 92.3201 225.567 85.8516 229.879C85.8516 229.879 87.9248 225.982 92.2371 225.152C95.3885 224.489 99.0373 225.733 99.5349 227.143Z" fill="black"/>
<path d="M98.2909 230.294C98.2909 230.294 93.3151 228.967 89.915 231.952C89.915 231.952 90.4955 229.216 93.1493 228.635C95.0567 228.221 97.6275 229.216 98.2909 230.294Z" fill="black"/>
<path d="M97.627 233.445C97.627 233.445 93.9781 232.284 91.4902 234.689C91.4902 234.689 91.9049 232.367 93.8123 232.036C95.2221 231.704 97.1295 232.533 97.627 233.445Z" fill="black"/>
<path d="M88.7536 256.085C87.9243 253.763 83.1973 246.963 81.5388 244.392C80.7095 243.148 79.9631 241.987 79.3826 240.66C77.6411 236.68 78.2216 231.787 80.7924 228.304" stroke="#F3DFC9" stroke-width="0.5" stroke-miterlimit="10" stroke-linecap="round" stroke-linejoin="round"/>
<path d="M87.6758 231.207C89.0856 231.87 90.0807 233.114 90.7442 234.524C91.4076 235.934 91.7393 237.426 92.154 238.919C92.8174 241.656 93.3979 244.392 94.0613 247.129" stroke="#F3DFC9" stroke-width="0.5" stroke-miterlimit="10" stroke-linecap="round" stroke-linejoin="round"/>
<path d="M100.861 247.129C99.9485 243.646 98.5387 237.675 98.6217 233.528C98.6217 231.206 99.5339 229.548 100.197 228.967" stroke="#F3DFC9" stroke-width="0.5" stroke-miterlimit="10" stroke-linecap="round" stroke-linejoin="round"/>
<path d="M89.7488 238.421C88.0073 238.753 86.1828 237.924 85.3535 236.348" stroke="#F3DFC9" stroke-width="0.5" stroke-miterlimit="10" stroke-linecap="round" stroke-linejoin="round"/>
<path d="M103.101 237.094C102.437 237.509 101.691 237.592 101.027 237.509" stroke="#F3DFC9" stroke-width="0.5" stroke-miterlimit="10" stroke-linecap="round" stroke-linejoin="round"/>
<path d="M102.603 232.367C101.525 232.367 100.53 233.196 100.281 234.275" stroke="#754F29" stroke-width="0.5" stroke-miterlimit="10" stroke-linecap="round" stroke-linejoin="round"/>
<path d="M89.7491 234.524C89.1686 233.446 87.9246 232.699 86.6807 232.782" stroke="#754F29" stroke-width="0.5" stroke-miterlimit="10" stroke-linecap="round" stroke-linejoin="round"/>
<path d="M101.857 235.601C102.315 235.601 102.686 235.23 102.686 234.772C102.686 234.314 102.315 233.943 101.857 233.943C101.399 233.943 101.027 234.314 101.027 234.772C101.027 235.23 101.399 235.601 101.857 235.601Z" fill="black"/>
<path d="M88.2561 236.348C88.7141 236.348 89.0853 235.977 89.0853 235.519C89.0853 235.061 88.7141 234.689 88.2561 234.689C87.798 234.689 87.4268 235.061 87.4268 235.519C87.4268 235.977 87.798 236.348 88.2561 236.348Z" fill="black"/>
<path d="M101.525 251.192C101.525 251.192 102.769 254.592 103.515 258.324C104.096 261.227 102.852 263.051 101.193 264.544C99.7835 265.788 94.7248 265.373 93.9784 264.627C93.2321 263.88 89.2515 256.997 89.2515 256.997C89.2515 256.997 88.2563 255.587 89.4173 255.339C90.5783 255.09 93.6467 256.666 93.8955 255.007C94.1443 253.265 94.3931 252.022 95.3053 251.773C98.5395 250.86 100.862 250.778 101.525 251.192Z" fill="#754F29"/>
<path d="M97.7927 261.476C97.378 261.724 96.6317 260.397 97.0463 259.9C96.9634 259.9 98.3732 261.061 97.7927 261.476Z" fill="black"/>
<path d="M96.6318 259.734C96.8806 259.817 97.1294 259.983 97.2953 260.149C97.7099 260.563 97.8758 261.061 97.7099 261.227" stroke="#382318" stroke-width="0.5" stroke-miterlimit="10" stroke-linecap="round" stroke-linejoin="round"/>
<path d="M102.603 261.475C103.101 261.558 103.267 260.066 102.686 259.734C102.686 259.734 101.857 261.31 102.603 261.475Z" fill="black"/>
<path d="M102.935 259.485C102.687 259.651 102.521 259.9 102.438 260.148C102.272 260.646 102.272 261.226 102.438 261.309" stroke="#382318" stroke-width="0.5" stroke-miterlimit="10" stroke-linecap="round" stroke-linejoin="round"/>
<path d="M93.9785 257.661C94.1444 258.905 94.3932 260.066 94.559 261.31C94.7249 262.139 94.8078 263.051 95.2225 263.797C95.6371 264.544 97.7103 265.456 98.5396 265.373" stroke="#382318" stroke-width="0.5" stroke-miterlimit="10" stroke-linecap="round" stroke-linejoin="round"/>
<path d="M99.5 436.6C99.5 436.6 89.6 340.1 199.3 301C199.3 301 193.5 387.1 99.5 436.6Z" fill="#374F3F"/>
<path d="M199.3 301L99.5 436.6" stroke="#192D1F" stroke-miterlimit="10"/>
<path d="M156.8 332.5L149.4 368.8L179 351.9" stroke="#192D1F" stroke-miterlimit="10"/>
<path d="M130.9 368.5L123.6 404.8L153.2 387.8" stroke="#192D1F" stroke-miterlimit="10"/>
<path d="M94.4998 434.3C94.3998 434.9 94.3998 435.6 94.2998 436.2C93.6998 435.9 73.8998 425 56.3998 401.2C37.1998 375 20.8998 333.3 36.5998 272.9C37.1998 273.3 59.9998 291.5 77.0998 327.2C77.3998 327.8 77.5998 328.3 77.8998 328.9C90.1998 355.1 99.0998 390.2 94.4998 434.3Z" fill="#5C893F"/>
<path opacity="0.32" d="M94.4998 434.3C88.4998 430.5 72.5998 419.5 58.2998 400C60.2998 392.1 62.2998 384.2 64.2998 376.3C64.5998 375.1 64.8998 373.8 65.1998 372.6C66.4998 367.4 67.7998 362.2 69.1998 357C69.7998 354.9 70.2998 352.8 70.8998 350.8C72.6998 344.5 74.5998 338.3 76.8998 332.2C77.0998 331.6 77.4998 330.4 77.8998 329.1C90.1998 355.1 99.0998 390.2 94.4998 434.3Z" fill="#527F34"/>
<path d="M94.2997 436.2L80.2997 396.5L67.0997 359.2L65.4997 354.6L36.6997 273" stroke="#355722" stroke-miterlimit="10"/>
<path d="M38.8999 327.4L65.4999 354.6L68.1999 319.7" stroke="#355722" stroke-miterlimit="10"/>
<path d="M54.5 370.1L81.1 397.4L83.9 362.4" stroke="#355722" stroke-miterlimit="10"/>
<path d="M84.5002 444.3C84.5002 444.3 39.5001 358.3 126.9 281.4C127 281.3 153.5 363.4 84.5002 444.3Z" fill="#659549"/>
<path d="M127 281.3L84.5 444.3" stroke="#355722" stroke-miterlimit="10"/>
<path d="M99.1006 326.3L105.801 362.8L127.001 336.1" stroke="#355722" stroke-miterlimit="10"/>
<path d="M88.5 369.3L95.1 405.8L116.3 379.1" stroke="#355722" stroke-miterlimit="10"/>
<path d="M106.7 427.7C106.7 427.7 156.1 344.2 267.6 378C267.6 378 211.7 443.8 106.7 427.7Z" fill="#77AD55"/>
<path d="M267.6 378L106.7 427.7" stroke="#355722" stroke-miterlimit="10"/>
<path d="M214.601 378L187.101 402.9L221.001 406.8" stroke="#355722" stroke-miterlimit="10"/>
<path d="M172.5 391.6L145 416.4L178.8 420.4" stroke="#355722" stroke-miterlimit="10"/>
<path d="M91.4 455.5C91.4 455.5 -5.4 449.1 -25.5 334.3C-25.5 334.3 58.4 354.5 91.4 455.5Z" fill="#77AD55"/>
<path d="M-25.5 334.3L91.4 455.5" stroke="#C2C155" stroke-miterlimit="10"/>
<path d="M-1.6001 381.6L32.9999 394.9L21.2999 362.9" stroke="#C2C155" stroke-miterlimit="10"/>
<path d="M29.5 413.1L64.1 426.5L52.4 394.4" stroke="#C2C155" stroke-miterlimit="10"/>
<path d="M-5.7002 386.7L11.1998 379.4" stroke="#293D39" stroke-miterlimit="10"/>
<path d="M10.2999 380.8C9.29986 380.7 8.79985 379.6 9.39985 378.8C12.2999 374.8 21.1999 365.1 41.0999 361.7C57.6999 358.9 66.0999 357.5 69.8999 356.8C70.9999 356.6 71.7999 357.8 71.1999 358.8C67.4999 364.4 57.6999 378.1 46.6999 380.5C35.2999 383.1 16.4999 381.4 10.2999 380.8Z" fill="#293D39"/>
<path d="M69.0999 358.8C69.0999 358.8 47.3999 372.4 10.8999 379.4" stroke="#6F9E7C" stroke-miterlimit="10" stroke-linecap="round" stroke-linejoin="round"/>
<path d="M1.3999 355.2L14.4999 348.3" stroke="#293D39" stroke-miterlimit="10"/>
<path d="M13.5997 349.7C12.5997 349.6 12.0997 348.5 12.6997 347.7C15.5997 343.7 24.4997 334 44.3997 330.6C60.9997 327.8 69.3997 326.4 73.1997 325.7C74.2997 325.5 75.0997 326.7 74.4997 327.7C70.7997 333.3 60.9997 347 49.9997 349.4C38.5997 352 19.7997 350.3 13.5997 349.7Z" fill="#293D39"/>
<path d="M72.3997 327.7C72.3997 327.7 50.6997 341.3 14.1997 348.3" stroke="#6F9E7C" stroke-miterlimit="10" stroke-linecap="round" stroke-linejoin="round"/>
<path d="M8.2998 326.8L23.4998 319.6" stroke="#293D39" stroke-miterlimit="10"/>
<path d="M22.6996 321C21.6996 321 21.0996 319.9 21.5996 319.1C24.0996 314.8 31.8996 304.3 51.2996 298.9C67.4996 294.4 75.6996 292.1 79.4996 291.1C80.5996 290.8 81.4996 291.9 80.9996 292.9C77.8996 298.9 69.5996 313.5 58.8996 317.1C47.7996 320.8 28.9996 321.1 22.6996 321Z" fill="#293D39"/>
<path d="M78.8997 293.1C78.8997 293.1 58.6997 308.9 23.1997 319.6" stroke="#6F9E7C" stroke-miterlimit="10" stroke-linecap="round" stroke-linejoin="round"/>
<path d="M13.7998 302.8L24.6998 290.9" stroke="#293D39" stroke-miterlimit="10"/>
<path d="M24.4997 292.5C23.5997 292.8 22.5997 292.1 22.7997 291.1C23.5997 286.2 27.2997 273.6 43.6997 261.8C57.2997 252 64.2997 247 67.3997 244.7C68.2997 244 69.5997 244.8 69.3997 245.9C68.5997 252.6 65.7997 269.2 57.0997 276.2C47.8997 283.6 30.2997 290.3 24.4997 292.5Z" fill="#293D39"/>
<path d="M67.4999 246.8C67.4999 246.8 53.9999 268.6 24.3999 291" stroke="#6F9E7C" stroke-miterlimit="10" stroke-linecap="round" stroke-linejoin="round"/>
<path d="M19.3997 264.8L20.0997 275.5L-7.80029 395.8" stroke="#293D39" stroke-miterlimit="10"/>
<path d="M20.1998 266.1C19.6998 266.9 18.4998 266.9 17.9998 266.1C15.4998 261.8 10.3998 249.7 15.5998 230.2C19.8998 214 22.0998 205.7 23.1998 202C23.4998 200.9 24.8998 200.7 25.4998 201.6C29.0998 207.3 37.4998 221.9 35.0998 232.9C32.6998 244.5 23.3998 260.8 20.1998 266.1Z" fill="#293D39"/>
<path d="M24.6998 203.6C24.6998 203.6 27.9998 229 19.2998 265" stroke="#6F9E7C" stroke-miterlimit="10" stroke-linecap="round" stroke-linejoin="round"/>
<path d="M0.699509 359.2L-10.0005 346.9" stroke="#293D39" stroke-miterlimit="10"/>
<path d="M6.9996 332.8L-6.40039 317" stroke="#293D39" stroke-miterlimit="10"/>
<path d="M14.5995 299.3L8.99951 283.9" stroke="#293D39" stroke-miterlimit="10"/>
<path d="M8.49943 285.7C9.29943 286.5 10.6994 286.1 10.9994 285C12.4994 279.4 14.5994 264.3 2.89943 243.9C-6.80057 226.9 -11.8006 218.3 -14.1006 214.3C-14.8006 213.2 -16.4006 213.3 -16.8006 214.6C-19.2006 222.1 -24.2006 241 -18.3006 252.7C-12.1006 265 3.29943 280.6 8.49943 285.7Z" fill="#293D39"/>
<path d="M-15.2007 216.6C-15.2007 216.6 -11.4007 246.2 9.29932 284.2" stroke="#6F9E7C" stroke-miterlimit="10" stroke-linecap="round" stroke-linejoin="round"/>
<path d="M216.521 332.699C216.521 332.699 213.903 331.622 212.518 329.774C211.209 327.927 211.286 326.387 210.747 326.233C210.208 326.079 206.744 330.159 207.899 332.699C209.054 335.317 210.439 335.24 210.439 335.24C210.439 335.24 209.131 332.16 209.901 331.16C210.824 330.159 214.519 335.009 216.521 332.699Z" fill="black"/>
<path d="M229.607 350.481C229.607 350.481 228.53 353.329 219.754 354.407C211.056 355.484 208.208 361.797 211.287 366.877C211.287 366.877 197.816 368.186 204.128 358.718C210.44 349.172 221.91 345.4 221.91 345.4L229.607 350.481Z" fill="black"/>
<path d="M206.976 357.178C206.976 357.178 208.131 357.178 208.439 358.409C208.439 358.409 209.362 357.563 210.055 358.717C211.056 360.334 208.9 362.566 211.287 366.8C211.287 366.8 205.821 368.032 204.59 364.183C203.358 360.411 206.976 357.178 206.976 357.178Z" fill="#CA907A"/>
<path d="M230.069 351.79C230.069 351.79 227.76 356.178 224.835 356.485C224.835 356.485 227.067 353.329 227.221 350.789L230.069 351.79Z" fill="#FBF2E7"/>
<path d="M225.605 350.481C225.605 350.481 223.295 354.869 220.37 355.177C220.37 355.177 222.602 352.021 222.756 349.48L225.605 350.481Z" fill="#FBF2E7"/>
<path d="M210.594 368.262C210.594 368.262 212.441 365.106 211.44 363.105C211.44 363.105 210.363 365.722 208.823 366.877L210.594 368.262Z" fill="#FBF2E7"/>
<path d="M206.822 366.339C206.822 366.339 209.131 363.491 208.515 361.412C208.515 361.412 207.053 363.875 205.359 364.722L206.822 366.339Z" fill="#FBF2E7"/>
<path d="M90.0475 376.037C90.0475 376.037 63.9522 394.897 62.4896 397.899C61.104 400.824 68.2629 403.441 62.5666 409.984C62.5666 409.984 58.4098 406.212 54.176 402.363C50.0193 398.592 49.6344 390.586 52.7904 386.66C55.9465 382.734 64.4141 373.882 63.2594 363.49C62.1047 353.098 68.032 339.55 83.8124 332.16C100.44 324.308 114.449 358.871 90.0475 376.037Z" fill="#844D14"/>
<path d="M40.7816 389.739C40.8586 389.97 41.0125 390.278 41.0895 390.509C42.3212 393.357 44.7075 395.59 47.5556 396.59C48.2484 396.821 49.0182 396.975 49.865 397.052C51.7124 397.206 53.7138 396.898 55.7152 395.821C56.562 395.359 57.4088 394.82 58.2555 394.127C59.3332 393.203 60.4109 392.126 61.4886 390.74C61.7195 390.432 61.9504 390.047 62.1814 389.739C62.3353 389.508 62.4893 389.278 62.6432 388.97C64.6446 385.967 66.1842 382.965 67.4928 379.963C67.8007 379.193 68.1856 378.424 68.4935 377.654C69.0324 376.268 69.5712 374.883 70.0331 373.497C70.264 372.804 70.4949 372.112 70.6489 371.496C71.0338 370.11 71.4186 368.801 71.8035 367.493C72.0345 366.646 72.2654 365.876 72.4194 365.03C73.1122 362.181 73.805 359.41 74.4977 356.793C77.192 346.786 79.0394 343.938 82.8113 341.705C86.5832 339.473 83.0423 332.622 83.0423 332.622C83.0423 332.622 70.187 339.858 68.2626 355.253C68.1086 356.716 67.8007 358.256 67.5698 359.872C67.3388 361.258 67.031 362.643 66.723 364.106C66.4151 365.645 66.0302 367.262 65.5684 368.801C65.2605 369.956 64.9525 371.188 64.5677 372.342C64.3367 373.112 64.0288 373.959 63.7979 374.729C63.336 376.037 62.9511 377.269 62.4123 378.501C61.5655 380.733 60.6418 382.734 59.6411 384.582C59.1023 385.583 58.5634 386.429 57.9476 387.276C57.5627 387.738 57.2548 388.2 56.8699 388.585C55.7922 389.816 54.7145 390.663 53.5599 391.048C53.021 391.202 52.4822 391.279 51.8664 391.279H51.7894C50.0189 391.125 48.8643 390.663 48.1715 389.97C47.0938 388.97 46.8628 387.661 46.6319 386.198C46.478 384.89 46.324 383.504 45.7852 382.35C44.2456 378.732 37.9335 381.888 40.7816 389.739Z" fill="#D4781E"/>
<path d="M64.4907 372.342C66.3382 372.958 68.1087 373.42 69.9561 373.574C70.1871 372.881 70.418 372.188 70.572 371.573C68.8015 370.726 67.108 369.802 65.4914 368.878C65.1835 369.956 64.8756 371.188 64.4907 372.342Z" fill="black"/>
<path d="M47.5557 396.59C48.2485 396.821 49.0182 396.975 49.865 397.052C50.4808 395.051 51.0966 393.126 51.7894 391.202C50.019 391.048 48.8643 390.586 48.1715 389.893C47.7096 392.125 47.4017 394.358 47.5557 396.59Z" fill="black"/>
<path d="M66.646 364.106C68.2625 365.414 70.033 366.569 71.8035 367.493C72.0344 366.646 72.2654 365.876 72.4193 365.029C70.7258 363.336 69.1093 361.565 67.4928 359.795C67.2618 361.181 66.9539 362.643 66.646 364.106Z" fill="black"/>
<path d="M53.4824 390.971C54.0982 392.665 54.868 394.281 55.6378 395.821C56.4845 395.359 57.3313 394.82 58.1781 394.127C57.7162 392.28 57.2543 390.355 56.7924 388.508C55.7917 389.739 54.6371 390.586 53.4824 390.971Z" fill="black"/>
<path d="M62.4121 378.5C64.1056 379.193 65.7991 379.732 67.4926 380.04C67.8005 379.27 68.1854 378.5 68.4933 377.731C66.8768 376.807 65.3372 375.806 63.7977 374.729C63.3358 376.037 62.874 377.269 62.4121 378.5Z" fill="black"/>
<path d="M59.5646 384.504C59.0257 385.505 58.4869 386.352 57.8711 387.199C59.0258 388.43 60.1804 389.662 61.3351 390.74C61.566 390.432 61.7969 390.047 62.0279 389.739C62.1818 389.508 62.3358 389.277 62.4897 388.969C61.566 387.507 60.5653 386.044 59.5646 384.504Z" fill="black"/>
<path d="M40.7816 389.739C40.8586 389.97 41.0125 390.278 41.0895 390.509C42.937 388.585 45.0924 387.122 46.6319 386.122C46.478 384.813 46.324 383.427 45.7852 382.273C44.2456 378.732 37.9335 381.888 40.7816 389.739Z" fill="black"/>
<path d="M135.849 385.506C138.312 382.581 148.858 374.421 152.63 361.181L173.799 376.269C173.799 376.269 146.01 394.282 144.316 397.976C142.623 401.671 146.549 405.443 141.237 409.985C141.237 409.985 137.004 403.519 134.155 398.977C131.153 394.512 132.385 389.74 135.849 385.506Z" fill="#844D14"/>
<path d="M75.6525 361.951C77.1921 366.492 80.0403 370.495 83.8122 374.036C84.1971 374.344 84.505 374.729 84.8898 375.037C87.4301 377.269 89.1236 380.117 90.2783 383.042C90.7401 384.197 91.0481 385.275 91.356 386.429C91.8178 388.277 92.1257 390.047 92.2797 391.818C92.4336 393.127 92.5106 394.358 92.5876 395.513C92.6646 396.975 92.7416 398.207 92.7416 399.208C93.0495 404.211 98.6688 409.908 104.365 409.908C109.985 409.908 115.681 409.908 115.681 409.908C115.527 404.904 113.218 403.749 111.062 403.134C109.446 402.595 107.906 402.364 107.521 401.055C106.598 397.899 106.29 372.881 106.29 372.881C111.601 373.189 121.069 379.194 132.462 381.041C143.932 382.889 156.479 373.805 156.479 373.805C165.562 384.197 166.64 397.437 167.795 401.132C169.488 406.367 172.798 409.908 178.187 409.908C183.498 409.908 191.273 409.908 191.273 409.908C190.657 405.443 188.271 404.365 186.115 403.288C184.884 402.672 183.729 402.056 182.959 400.824C181.343 398.284 180.958 380.117 180.804 370.341C186.192 363.336 197.662 359.795 197.662 359.795C196.892 366.03 204.282 370.495 207.669 370.418C211.056 370.341 211.364 366.877 211.364 366.877C208.901 367.416 205.437 365.569 205.745 361.104C206.129 356.639 221.063 350.173 221.063 350.173C223.141 352.79 226.99 351.174 226.99 351.174C226.99 351.174 227.914 353.406 229.531 352.559C231.147 351.713 232.764 346.247 231.609 344.939C231.609 344.862 231.532 344.862 231.532 344.785C230.223 343.476 225.99 341.398 225.99 341.398C225.99 341.398 225.759 339.781 223.449 337.318C222.449 336.24 221.448 335.393 220.37 334.701C219.908 334.393 219.447 334.085 218.985 333.854C218.369 333.469 217.753 333.161 217.06 332.93C216.444 332.699 215.906 332.391 215.29 332.16C212.288 331.006 209.055 330.159 205.437 328.696C202.742 327.542 200.125 326.618 197.585 325.848C195.891 325.309 194.198 324.924 192.581 324.54C189.194 323.77 185.884 323.385 182.728 323.154C180.727 323 178.879 323 177.032 323C173.645 323 170.489 323.231 167.641 323.539C165.947 323.693 164.408 323.924 162.868 324.078C162.329 324.155 161.867 324.232 161.405 324.309C157.403 325.232 154.785 327.542 150.783 329.466C149.166 330.236 147.396 330.929 145.24 331.468C144.547 331.621 143.855 331.775 143.085 331.852C141.545 332.083 140.006 332.237 138.466 332.237C136.619 332.314 134.771 332.237 132.847 332.006C130.076 331.775 127.074 331.391 123.61 330.929C121.839 330.698 119.915 330.467 117.836 330.236C115.296 329.928 112.525 329.62 109.446 329.389C107.598 329.235 105.597 329.081 103.518 328.927C102.98 328.927 102.441 328.85 101.825 328.85C98.5149 328.696 95.6667 328.773 93.2034 329.004C91.125 329.235 89.3546 329.697 87.738 330.236C83.7352 331.621 81.118 333.854 79.3475 336.548C78.1928 338.319 77.3461 340.243 76.6533 342.321C76.0374 344.323 75.5756 346.478 75.1137 348.633C73.9591 353.56 74.267 357.948 75.6525 361.951Z" fill="#D4781E"/>
<path d="M215.212 340.32C215.637 340.32 215.982 339.976 215.982 339.551C215.982 339.125 215.637 338.781 215.212 338.781C214.787 338.781 214.442 339.125 214.442 339.551C214.442 339.976 214.787 340.32 215.212 340.32Z" fill="black"/>
<path d="M180.728 370.418C186.116 363.413 197.586 359.872 197.586 359.872C196.816 366.107 204.206 370.572 207.593 370.495C210.98 370.418 211.288 366.954 211.288 366.954C208.824 367.493 205.36 365.645 205.668 361.181C206.053 356.716 220.987 350.25 220.987 350.25C223.065 352.867 226.914 351.251 226.914 351.251C226.914 351.251 227.838 353.483 229.454 352.636C231.071 351.79 232.687 346.324 231.533 345.016C231.533 344.939 231.456 344.939 231.456 344.862L226.452 344.939C226.452 344.939 223.835 343.63 221.372 342.552C219.909 341.859 216.522 344.092 214.367 342.937C212.365 341.859 209.517 336.856 207.978 336.009C204.437 334.162 201.204 336.856 198.047 342.167C191.581 353.098 180.728 357.486 180.728 370.418Z" fill="#F3DFC9"/>
<path d="M226.914 351.25C226.914 351.25 228.377 348.556 229.069 345.477" stroke="#442A1C" stroke-width="0.5" stroke-miterlimit="10" stroke-linecap="round" stroke-linejoin="round"/>
<path d="M226.528 344.861C226.682 344.322 231.532 344.63 231.686 344.784C231.84 344.938 230.223 346.17 229.146 346.17C227.76 346.17 226.374 345.323 226.528 344.861Z" fill="black"/>
<path d="M220.062 348.941C222.372 353.406 226.913 351.174 226.913 351.174C226.913 351.174 227.837 353.406 229.454 352.559" stroke="#442A1C" stroke-width="0.5" stroke-miterlimit="10" stroke-linecap="round" stroke-linejoin="round"/>
<path d="M106.29 372.881C108.753 373.035 112.14 374.42 116.22 376.037C120.838 377.884 126.381 380.04 132.539 381.04C136.157 381.656 139.929 381.117 143.316 380.194C145.163 379.655 146.857 379.039 148.396 378.346C149.474 377.884 150.475 377.422 151.321 376.96C153.092 376.037 154.554 375.19 155.478 374.574C156.171 374.112 156.556 373.881 156.556 373.881C157.095 374.497 157.634 375.19 158.172 375.806C159.404 377.422 160.482 379.193 161.405 380.886C162.252 382.426 162.945 383.965 163.561 385.505C164.1 386.737 164.485 387.968 164.869 389.123C165.177 390.124 165.485 391.047 165.716 391.894C166.024 392.895 166.255 393.895 166.409 394.819C167.102 397.667 167.41 399.977 167.795 401.131C169.488 406.366 172.798 409.907 178.187 409.907C183.498 409.907 191.273 409.907 191.273 409.907C190.657 405.442 188.271 404.364 186.115 403.287C186.115 403.287 182.805 406.135 179.341 403.287C177.879 402.132 176.416 399.053 174.953 395.358C174.8 395.05 174.723 394.742 174.569 394.434C174.107 393.203 173.568 391.894 173.106 390.585C172.875 389.893 172.567 389.2 172.336 388.507C171.412 386.044 170.566 383.658 169.719 381.656C169.411 380.963 169.18 380.347 168.872 379.732C168.795 379.501 168.641 379.27 168.487 379.039C165.254 372.573 158.788 368.57 156.325 363.874C156.325 363.874 134.617 374.959 124.918 370.417C115.373 365.953 108.137 363.181 107.983 363.104C107.983 363.104 106.213 368.955 106.29 372.881Z" fill="#F3DFC9"/>
<path d="M84.9668 375.113C92.8185 382.041 92.5106 394.281 92.8185 399.284C93.1264 404.288 98.7458 409.984 104.442 409.984C110.061 409.984 115.758 409.984 115.758 409.984C115.604 404.981 113.295 403.826 111.139 403.21C110.985 403.364 105.135 408.291 100.054 403.21C94.8199 397.899 96.7444 382.118 84.9668 375.113Z" fill="#F3DFC9"/>
<path d="M106.289 372.881C108.753 373.035 112.14 374.421 116.22 376.037C110.369 370.572 108.06 363.336 108.06 363.105C108.06 363.105 106.212 368.955 106.289 372.881Z" fill="#844D14"/>
<path d="M197.508 360.565C197.662 357.794 196.892 354.945 195.198 352.79" stroke="#FBF2E7" stroke-width="0.5" stroke-miterlimit="10" stroke-linecap="round" stroke-linejoin="round"/>
<path d="M188.578 338.857C188.732 343.63 188.963 348.787 191.965 352.482C191.657 346.94 192.119 341.398 193.197 336.009C193.582 334.162 194.043 332.237 194.813 330.467C195.506 328.85 196.43 327.311 197.43 325.848C195.737 325.309 194.043 324.924 192.427 324.54C191.965 325.463 191.503 326.464 191.041 327.388C190.195 329.158 189.348 330.852 188.963 332.776C188.501 334.855 188.578 336.856 188.578 338.857Z" fill="black"/>
<path d="M212.825 331.39C212.825 331.39 210.131 330.467 208.669 328.696C207.206 326.926 207.206 325.386 206.667 325.309C206.128 325.232 202.972 329.466 204.281 332.006C205.59 334.546 206.975 334.392 206.975 334.392C206.975 334.392 205.436 331.39 206.205 330.313C206.975 329.235 210.978 333.854 212.825 331.39Z" fill="black"/>
<path d="M212.21 332.622C212.21 332.622 214.442 335.162 216.906 333.007C216.29 332.776 215.751 332.468 215.135 332.237C214.288 332.622 213.288 332.776 212.21 332.622Z" fill="black"/>
<path d="M215.366 334.624C215.366 334.624 217.599 337.087 220.062 334.932C220.139 334.855 220.216 334.778 220.293 334.701C219.831 334.393 219.369 334.085 218.907 333.854C217.83 334.47 216.675 334.855 215.366 334.624Z" fill="black"/>
<path d="M175.107 331.006C175.03 333.161 175.569 335.163 176.031 337.241C177.262 342.091 178.648 347.325 182.882 350.404C181.342 344.785 180.572 339.011 180.649 333.238C180.649 331.237 180.803 329.158 181.265 327.157C181.573 325.848 182.035 324.54 182.574 323.231C180.572 323.077 178.725 323.077 176.877 323.077C176.724 323.693 176.493 324.386 176.339 325.002C175.723 326.926 175.184 328.927 175.107 331.006Z" fill="black"/>
<path d="M132.308 335.856C132.308 338.319 132.923 340.782 133.462 343.168C134.848 348.865 136.464 355.023 140.852 358.795C139.082 352.175 138.158 345.401 138.004 338.627C137.927 336.548 138.004 334.47 138.235 332.392C136.387 332.469 134.54 332.392 132.616 332.161C132.385 333.392 132.308 334.624 132.308 335.856Z" fill="black"/>
<path d="M104.365 387.046C99.5926 386.122 94.82 384.813 90.2783 383.12C90.7402 384.274 91.0481 385.352 91.356 386.507C95.8207 387.43 100.516 388.277 104.365 387.046Z" fill="black"/>
<path d="M103.518 397.053C99.6693 395.667 95.8974 393.896 92.3564 391.895C92.5104 393.204 92.5874 394.435 92.6644 395.59C96.2823 396.822 100.054 397.822 103.518 397.053Z" fill="black"/>
<path d="M160.25 376.576C159.557 376.345 158.865 376.038 158.172 375.807C159.404 377.423 160.481 379.194 161.405 380.887C161.713 380.964 162.021 380.964 162.329 381.041C164.792 381.349 167.255 381.734 169.718 381.657C172.028 381.657 174.183 381.272 176.108 380.348C173.567 380.04 171.027 379.579 168.487 379.04C165.716 378.347 162.944 377.577 160.25 376.576Z" fill="black"/>
<path d="M172.336 388.508C169.411 387.584 166.486 386.583 163.561 385.429C164.099 386.66 164.484 387.892 164.869 389.047C167.64 389.739 170.412 390.278 173.106 390.509C175.184 390.663 177.109 390.663 178.956 390.355C176.724 389.816 174.491 389.201 172.336 388.508Z" fill="black"/>
<path d="M174.568 394.435C171.566 393.742 168.641 392.896 165.716 391.895C166.024 392.896 166.255 393.896 166.409 394.82C169.334 395.359 172.259 395.744 174.876 395.436C175.569 395.359 176.339 395.205 177.032 395.051C176.185 394.82 175.338 394.666 174.568 394.435Z" fill="black"/>
<path d="M104.826 353.945C105.057 347.171 106.058 340.32 107.828 333.777C108.213 332.315 108.675 330.929 109.214 329.543C107.366 329.389 105.365 329.235 103.287 329.082C103.21 329.235 103.21 329.389 103.133 329.466C102.44 331.853 102.286 334.316 102.209 336.856C101.901 342.707 101.67 349.096 104.826 353.945Z" fill="black"/>
<path d="M116.065 345.169C116.45 352.328 116.989 360.026 120.607 365.492C120.068 357.255 120.299 348.941 121.299 340.782C121.684 337.934 122.146 335.162 122.916 332.468C123.07 332.006 123.224 331.544 123.378 331.16C121.607 330.929 119.683 330.698 117.605 330.467C116.989 332.314 116.45 334.239 116.142 336.24C115.757 339.165 115.911 342.167 116.065 345.169Z" fill="black"/>
<path d="M161.251 324.386C161.328 325.54 161.328 326.618 161.405 327.773C161.559 330.775 161.713 333.854 162.406 336.933C163.175 340.089 164.484 343.168 165.793 346.247C168.872 353.483 172.413 361.181 178.032 365.492C174.26 357.255 171.335 348.557 169.18 339.858C168.41 336.856 167.794 333.777 167.563 330.698C167.332 328.312 167.409 326.002 167.486 323.693C165.793 323.847 164.253 324.078 162.714 324.232C162.175 324.155 161.713 324.232 161.251 324.386Z" fill="black"/>
<path d="M145.086 337.164C145.394 339.935 146.163 342.706 147.01 345.478C148.935 351.944 151.09 358.949 155.709 363.105C153.322 355.639 151.706 347.941 150.859 340.243C150.551 337.549 150.397 334.855 150.474 332.237C150.551 331.314 150.628 330.467 150.705 329.62C149.089 330.39 147.318 331.083 145.163 331.622C144.932 333.392 144.855 335.24 145.086 337.164Z" fill="black"/>
<path d="M87.8143 336.856C88.2762 338.935 89.2769 340.859 90.2006 342.706C92.51 347.171 95.1272 351.867 99.9768 353.868C97.1286 348.788 95.0502 343.399 93.7416 337.703C93.2797 335.701 92.8949 333.7 92.8949 331.699C92.8949 330.852 92.8948 330.082 92.9718 329.235C90.8934 329.466 89.123 329.928 87.5064 330.467C87.5064 330.544 87.5064 330.698 87.5064 330.852C87.4295 332.776 87.3525 334.855 87.8143 336.856Z" fill="black"/>
<path d="M76.499 342.475C76.9609 343.399 77.4997 344.4 78.0386 345.323C79.5011 347.71 81.4256 349.865 83.35 351.943C87.8147 357.024 92.7413 362.335 98.3606 364.491C93.0492 358.718 88.2766 352.559 84.1198 346.016C82.6572 343.784 81.2716 341.475 80.194 339.088C79.8091 338.242 79.5011 337.472 79.1932 336.625C77.9616 338.395 77.1148 340.397 76.499 342.475Z" fill="black"/>
<path d="M75.6523 361.951C77.1919 366.492 80.0401 370.495 83.812 374.036C84.2738 374.267 84.7357 374.421 85.2745 374.652C91.5097 377.346 98.2068 380.04 104.365 379.271C97.1291 376.345 90.2011 372.651 83.735 368.417C81.5026 366.954 79.2703 365.338 77.3459 363.567C76.73 363.105 76.1912 362.567 75.6523 361.951Z" fill="black"/>
<path d="M202.434 334.008C202.434 334.008 198.662 346.247 203.973 352.944C203.973 352.944 198.2 352.328 198.662 345.477C199.047 338.473 200.51 335.932 202.434 334.008Z" fill="black"/>
<path d="M205.436 335.008C205.436 335.008 204.897 346.17 211.671 350.096C211.671 350.096 206.051 351.251 204.666 345.477C203.357 339.704 204.204 337.164 205.436 335.008Z" fill="black"/>
<path d="M210.055 352.098C207.592 353.252 204.974 354.561 203.82 356.947C203.05 358.564 203.05 360.411 203.05 362.259" stroke="#FBF2E7" stroke-width="0.5" stroke-miterlimit="10" stroke-linecap="round" stroke-linejoin="round"/>
<path d="M208.439 358.41C208.285 359.179 208.208 359.872 208.208 360.642" stroke="#442A1C" stroke-width="0.5" stroke-miterlimit="10" stroke-linecap="round" stroke-linejoin="round"/>
<path d="M150.089 382.272C147.241 383.196 144.393 384.043 141.545 384.967" stroke="#382318" stroke-width="0.5" stroke-miterlimit="10" stroke-linecap="round" stroke-linejoin="round"/>
<path d="M80.7329 379.424C78.1156 380.579 75.4214 381.426 72.5732 381.965" stroke="#382318" stroke-width="0.5" stroke-miterlimit="10" stroke-linecap="round" stroke-linejoin="round"/>
<path d="M158.635 353.637C158.789 358.409 157.096 363.182 154.017 366.723C153.555 367.185 153.093 367.724 152.862 368.262C152.323 369.494 153.247 371.726 156.788 374.19" stroke="#844D14" stroke-width="0.5" stroke-miterlimit="10" stroke-linecap="round" stroke-linejoin="round"/>
<path d="M106.598 353.944C106.598 353.944 109.215 359.872 106.29 372.958" stroke="#844D14" stroke-width="0.5" stroke-miterlimit="10" stroke-linecap="round" stroke-linejoin="round"/>
<path d="M225.913 341.474C225.913 341.474 223.45 340.012 222.911 338.626" stroke="#844D14" stroke-width="0.5" stroke-miterlimit="10" stroke-linecap="round" stroke-linejoin="round"/>
<path d="M217.6 338.395C216.522 337.472 215.214 336.933 213.828 336.779" stroke="#844D14" stroke-width="0.5" stroke-miterlimit="10" stroke-linecap="round" stroke-linejoin="round"/>
<path d="M226.528 344.861C224.373 343.784 221.679 342.321 219.985 340.705" stroke="#844D14" stroke-width="0.5" stroke-miterlimit="10" stroke-linecap="round" stroke-linejoin="round"/>
<path d="M159.944 324.462C156.249 325.386 153.554 328.542 151.399 331.621C149.167 334.7 147.088 338.087 143.778 340.089" stroke="#844D14" stroke-width="0.5" stroke-miterlimit="10" stroke-linecap="round" stroke-linejoin="round"/>
<path d="M127.459 345.015C126.458 348.325 127.382 351.866 128.229 355.176C129.229 358.794 130.153 362.335 131.154 365.953" stroke="#844D14" stroke-width="0.5" stroke-miterlimit="10" stroke-linecap="round" stroke-linejoin="round"/>
<path d="M187.655 350.404C183.498 356.331 181.112 363.49 180.881 370.803" stroke="#844D14" stroke-width="0.5" stroke-miterlimit="10" stroke-linecap="round" stroke-linejoin="round"/>
<path d="M74.5752 356.716C73.4975 352.79 73.7285 348.479 75.1141 344.708" stroke="#844D14" stroke-width="0.5" stroke-miterlimit="10" stroke-linecap="round" stroke-linejoin="round"/>
<path d="M132 350.48C132.847 353.483 134.617 356.254 137.004 358.332" stroke="#844D14" stroke-width="0.5" stroke-miterlimit="10" stroke-linecap="round" stroke-linejoin="round"/>
<path d="M204.282 327.926C201.203 328.85 198.355 330.39 195.969 332.468" stroke="#844D14" stroke-width="0.5" stroke-miterlimit="10" stroke-linecap="round" stroke-linejoin="round"/>
<path d="M200.357 326.772C198.509 326.772 196.662 327.311 195.122 328.235" stroke="#844D14" stroke-width="0.5" stroke-miterlimit="10" stroke-linecap="round" stroke-linejoin="round"/>
</svg>
