<svg width="195" height="278" viewBox="0 0 195 278" fill="none" xmlns="http://www.w3.org/2000/svg">
<path d="M95.5004 279.5H75.4004C74.8004 277.8 77.4004 275.3 78.3004 273.8C78.4004 273.7 78.4004 273.6 78.5004 273.5C80.7004 269.1 65.9004 247.5 65.9004 247.5H89.2004C89.2004 247.5 94.7003 263.7 95.6003 269C96.9003 276.7 95.5004 279.5 95.5004 279.5Z" fill="#475058"/>
<path d="M88.3008 260C89.7008 261 91.0008 261.9 92.4008 262.9" stroke="#2A343D" stroke-miterlimit="10" stroke-linecap="round" stroke-linejoin="round"/>
<path d="M86.5001 279.5H75.5001C74.9001 277.8 77.5001 275.3 78.4001 273.8L86.5001 279.5Z" fill="#2A343D"/>
<path d="M136.6 264.7C136.9 267.3 133.1 272.3 125.5 279.5H108.5C108.5 279.5 108.6 276.8 111 275.2C111.8 274.7 112.5 274.2 113.2 273.6C116 271.4 117.6 269 117.9 266.5C118.7 259.5 103.5 260.4 105.7 247.7C110.2 222.3 146.7 223.7 146.7 223.7C140.2 237.8 134.2 245.8 133.5 250.1C132.7 254.5 136.3 262.1 136.6 264.7Z" fill="#475058"/>
<path d="M116.601 262.7C117.601 264.4 118.401 266.2 119.001 268.1" stroke="#2A343D" stroke-miterlimit="10" stroke-linecap="round" stroke-linejoin="round"/>
<path d="M118.6 279.5H108.4C108.4 279.5 108.5 276.8 110.9 275.2C111.7 274.7 112.4 274.2 113.1 273.6C114.7 275.2 116.9 277.6 118.6 279.5Z" fill="#2A343D"/>
<path d="M35.0004 215.8C35.0004 215.8 30.0004 207.1 27.2004 203.6C24.4004 200.1 31.6004 201.4 33.7004 203.4C35.8004 205.3 36.2004 210.8 36.7004 214.8L35.0004 215.8Z" fill="#475058"/>
<path d="M163.4 211.5C163.4 211.5 172.6 226.8 167.6 250.4C167.6 250.4 169.1 231 161.7 223.7L163.4 211.5Z" fill="#475058"/>
<path d="M168.3 244.9C168.3 244.9 164.7 247.6 166 252.2C167.3 256.8 169.4 259.1 169.7 262.7C169.7 262.7 173.4 251.3 168.3 244.9Z" fill="#475058"/>
<path d="M165.201 223.8C161.101 237.9 156.601 245.9 156.601 250.2C156.601 254.5 161.601 262.1 162.301 264.7C163.001 267.3 160.201 272.3 153.801 279.5H136.801C136.801 279.5 136.401 276.8 138.601 275.2C138.901 274.9 139.301 274.7 139.601 274.4C142.601 271.9 144.201 269.3 144.001 266.5C143.601 259.5 128.301 260.4 128.501 247.7C128.501 247.7 128.501 247.7 128.401 247.8C127.501 248.9 121.201 255.7 109.601 256.8C97.0005 258 95.8005 253.2 85.1005 247.5C85.1005 247.5 77.4005 263.7 72.6005 269C67.8005 274.2 65.2006 279.5 65.2006 279.5H45.7006C45.7006 279.5 45.9005 277 49.5005 273.5C50.1005 273 50.7006 272.4 51.4006 271.8C56.9006 267.5 57.9006 247.5 57.9006 247.5C49.7006 247.7 46.9006 243.3 40.4006 243.3C34.0006 243.3 28.9006 246.1 23.9006 247.5C15.0006 250.1 10.3005 247.5 10.3005 247.5L7.90056 249.2C1.80056 245.4 7.90056 234.9 7.90056 234.9L15.0005 224.2C15.0005 224.2 24.9006 223.4 34.4006 214.7C57.0006 193.7 55.2006 187.7 68.2006 186.9C81.8006 186 90.9005 204.2 118.301 193.8C145.401 183.4 169.301 209.7 165.201 223.8Z" fill="#A0A9B1"/>
<path d="M128.5 247.7C128.5 247.7 128.5 247.7 128.4 247.8C127.5 248.9 121.2 255.7 109.6 256.8C96.9996 258 95.7996 253.2 85.0996 247.5C85.0996 247.5 86.4997 244.2 86.8997 243.1C86.8997 243.1 90.6996 245.7 95.5996 248.4C100.5 251.1 118.1 251.3 126.1 245.8C126 245.8 127.4 245.9 128.5 247.7Z" fill="#ABB5BC"/>
<path d="M15.0004 224.2C13.1004 234.2 7.90039 234.9 7.90039 234.9L15.0004 224.2Z" fill="#A0A9B1"/>
<path d="M15 224.2C15 224.2 13.6001 233.7 7.90006 234.9C7.90006 234.9 -4.39996 224.2 2.50004 208.1C2.50004 208.2 6.10004 223.8 15 224.2Z" fill="#FBF2E7"/>
<path d="M36.5996 243.6C36.5996 243.6 38.4996 243.3 45.5996 241.8C48.0996 241.3 50.9996 233.8 45.5996 225.9" stroke="#7E868D" stroke-miterlimit="10" stroke-linecap="round" stroke-linejoin="round"/>
<path d="M51.4004 231.8C51.4004 231.8 52.2004 235 51.9004 237.4C51.5004 239.8 49.9004 241.3 48.9004 241.7" stroke="#7E868D" stroke-miterlimit="10" stroke-linecap="round" stroke-linejoin="round"/>
<path d="M15.0005 224.2C15.0005 224.2 12.9005 217 16.5005 211.8C16.5005 211.8 19.5005 220.4 24.1005 221.6C24.1005 221.6 18.6005 225.1 15.0005 224.2Z" fill="#FBF2E7"/>
<path d="M10.2998 247.6C15.0998 244.3 21.4998 243.2 25.1998 242.2C32.4998 240.2 31.6998 237.4 31.6998 237.4" stroke="#7E868D" stroke-miterlimit="10" stroke-linecap="round" stroke-linejoin="round"/>
<path d="M35.7006 215.9C35.7006 215.9 33.9005 206 32.5005 201.8C31.1005 197.6 37.4006 201.2 38.7006 203.8C40.0006 206.3 38.6006 211.7 37.7006 215.5L35.7006 215.9Z" fill="#A0A9B1"/>
<path d="M34.0001 200.9C34.0001 200.9 33.2001 201.4 34.0001 203.6C34.8001 205.9 37.9001 207.9 37.6001 215.4C37.6001 215.4 39.3001 212.3 39.2001 207.3" stroke="#7E868D" stroke-miterlimit="10" stroke-linecap="round" stroke-linejoin="round"/>
<path d="M85.0002 247.6C80.0002 248.6 74.3002 245 69.3002 244.6C65.3002 244.2 61.3002 245.6 57.8002 247.6C57.8002 247.6 56.3002 238 65.6002 231.1" stroke="#7E868D" stroke-miterlimit="10" stroke-linecap="round" stroke-linejoin="round"/>
<path d="M82.9998 220.8C81.2998 223.6 82.5998 227.3 84.3998 230.2C86.0998 233.1 88.1998 236 87.8998 239.3C87.7998 240.4 87.3998 241.5 86.9998 242.5C86.2998 244.4 85.5998 245.6 84.8998 247.5" stroke="#7E868D" stroke-miterlimit="10" stroke-linecap="round" stroke-linejoin="round"/>
<path d="M48.9004 244.2C49.9004 244.2 50.7004 243.6 51.5004 243C55.2004 240 57.4004 235.3 57.3004 230.6" stroke="#7E868D" stroke-miterlimit="10" stroke-linecap="round" stroke-linejoin="round"/>
<path d="M128.5 247.7C128.5 247.7 128.8 244.5 126.1 241.4C124.3 239.3 123.1 250.5 113.8 256.2C113.7 256.2 122.7 254.6 128.5 247.7Z" fill="#7E868D"/>
<path d="M85 247.6C89.4 246.4 93.9 243.8 96 239.7" stroke="#7E868D" stroke-miterlimit="10" stroke-linecap="round" stroke-linejoin="round"/>
<path d="M80.5 190.2C85.3 192.4 89.7 196.4 93.3 200.3C94.5 201.6 95.6 202.9 97 203.8" stroke="#7E868D" stroke-miterlimit="10" stroke-linecap="round" stroke-linejoin="round"/>
<path d="M128.5 248.5C128.9 243.9 130.1 239.2 132.6 235.4C135.2 231.6 139.3 228.6 143.9 228.1" stroke="#7E868D" stroke-miterlimit="10" stroke-linecap="round" stroke-linejoin="round"/>
<path d="M131.9 236.5C131.7 235.7 132 234.8 132.4 234C134.1 230.3 137.3 227.2 141.1 225.7" stroke="#7E868D" stroke-miterlimit="10" stroke-linecap="round" stroke-linejoin="round"/>
<path d="M104.7 207.9C110.2 214.3 113.6 222.2 118 229.4C119.3 231.6 120.8 233.7 122.3 235.7" stroke="#ABB5BC" stroke-miterlimit="10" stroke-linecap="round" stroke-linejoin="round"/>
<path d="M114.3 210.1C119.1 216.8 123.5 223.7 127.5 230.8" stroke="#ABB5BC" stroke-miterlimit="10" stroke-linecap="round" stroke-linejoin="round"/>
<path d="M122.9 210.4C125.9 214.8 128.8 219.2 131.8 223.7" stroke="#ABB5BC" stroke-miterlimit="10" stroke-linecap="round" stroke-linejoin="round"/>
<path d="M129.6 211.5C131.5 213.7 133.4 216 135.4 218.2" stroke="#ABB5BC" stroke-miterlimit="10" stroke-linecap="round" stroke-linejoin="round"/>
<path d="M56.5 279.5H45.5C45.5 279.5 45.7 277 49.3 273.5L56.5 279.5Z" fill="#7E868D"/>
<path d="M145.6 279.5H136.8C136.8 279.5 136.4 276.8 138.6 275.2C138.9 274.9 139.3 274.7 139.6 274.4L145.6 279.5Z" fill="#7E868D"/>
<path d="M32.9996 227.9C33.7728 227.9 34.3997 227.273 34.3997 226.5C34.3997 225.727 33.7728 225.1 32.9996 225.1C32.2264 225.1 31.5996 225.727 31.5996 226.5C31.5996 227.273 32.2264 227.9 32.9996 227.9Z" fill="#382318"/>
<path d="M29.9004 225.6C30.2004 225 30.8004 224.7 31.4004 224.3C31.7004 224.1 31.9004 224 32.2004 223.9C32.5004 223.8 32.7004 223.8 33.0004 223.8C34.4004 223.8 35.8004 224.2 37.0004 225" stroke="#7E868D" stroke-miterlimit="10" stroke-linecap="round" stroke-linejoin="round"/>
<path d="M143.1 264C144.5 266.6 145.4 269.5 145.7 272.4" stroke="#7E868D" stroke-miterlimit="10" stroke-linecap="round" stroke-linejoin="round"/>
<path d="M49.9004 205.6C55.2004 207.4 59.3003 212.1 61.1003 217.3C62.9003 222.6 60.6004 230.5 61.4004 235.2" stroke="#7E868D" stroke-miterlimit="10" stroke-linecap="round" stroke-linejoin="round"/>
<path d="M94.5 251.6C96.4 249.6 98.1 247.3 99.5 244.8" stroke="#B0BAC1" stroke-miterlimit="10" stroke-linecap="round" stroke-linejoin="round"/>
<path d="M99.7998 252.2C100.6 250.2 101.5 248.3 102.3 246.3" stroke="#B0BAC1" stroke-miterlimit="10" stroke-linecap="round" stroke-linejoin="round"/>
<path d="M105.8 247.9C105.8 249.4 105.8 251 105.8 252.5" stroke="#B0BAC1" stroke-miterlimit="10" stroke-linecap="round" stroke-linejoin="round"/>
<path d="M109 248.6C109.7 249.9 110.5 251.1 111.2 252.4" stroke="#B0BAC1" stroke-miterlimit="10" stroke-linecap="round" stroke-linejoin="round"/>
<path d="M112.9 248.6C113.7 249.4 114.4 250.3 115.2 251.1" stroke="#B0BAC1" stroke-miterlimit="10" stroke-linecap="round" stroke-linejoin="round"/>
<path d="M158.9 219.2C160.8 220 161.4 222.3 161.7 224.3C162.3 228.4 161.8 232.4 161 236.5" stroke="#7E868D" stroke-miterlimit="10" stroke-linecap="round" stroke-linejoin="round"/>
<path d="M103.7 197C105.4 197.3 107 198.2 108.2 199.5" stroke="#7E868D" stroke-miterlimit="10" stroke-linecap="round" stroke-linejoin="round"/>
<path d="M111.4 195.3C114.8 196 118.1 197.2 121.2 198.7C122.4 199.3 123.8 200.1 124 201.5" stroke="#7E868D" stroke-miterlimit="10" stroke-linecap="round" stroke-linejoin="round"/>
<path d="M52 270.8C53.6 270.7 55.2 270.9 56.7 271.4" stroke="#7E868D" stroke-miterlimit="10" stroke-linecap="round" stroke-linejoin="round"/>
<path d="M10.6004 237.3C11.0004 237.9 12.8004 236.4 12.5004 235.4C12.6004 235.5 9.90041 236.4 10.6004 237.3Z" fill="#382318"/>
<path d="M13.1002 235.5C12.7002 235.4 12.3002 235.5 11.9002 235.7C11.2002 236 10.7002 236.7 10.7002 237.1" stroke="#382318" stroke-miterlimit="10" stroke-linecap="round" stroke-linejoin="round"/>
<path d="M29.9004 227.4C31.3004 229 34.2004 229.4 36.0004 228.2" stroke="#ABB5BC" stroke-miterlimit="10" stroke-linecap="round" stroke-linejoin="round"/>
<path d="M29.9004 229.7C30.9004 230.3 34.0003 231.3 36.1003 229.9" stroke="#ABB5BC" stroke-miterlimit="10" stroke-linecap="round" stroke-linejoin="round"/>
<path d="M31.2002 232.3C32.4002 232.7 33.7002 232.9 35.0002 232.7" stroke="#7E868D" stroke-miterlimit="10" stroke-linecap="round" stroke-linejoin="round"/>
<path d="M14.9004 224.2C15.7004 225.2 16.9004 225.9 18.2004 226.1" stroke="#B0BAC1" stroke-miterlimit="10" stroke-linecap="round" stroke-linejoin="round"/>
<path d="M303.9 151.5C295.5 162.7 289.3 176 278.2 184.5C260.1 198.3 235 195.5 212.6 199.2C199.5 201.4 187 206 174.5 210.6C163 214.8 151.5 219.1 140 223.3C124.9 228.9 109.6 234.5 96.4998 243.8C76.5998 257.8 62.3998 280.1 59.7998 304.2C174.1 285 290.8 280.7 406.2 291.2C421.3 292.6 438.7 293.3 448.9 282.2C458.8 271.4 457 254.7 454.5 240.3C449.6 211.3 444.7 182.4 439.8 153.4C436.8 135.8 439 103 417.3 97.9001C399.4 93.7001 372.6 106.1 356.6 112.9C336.5 121.5 316.9 133.6 303.9 151.5Z" fill="#659549"/>
<path d="M193 41.0996L200.1 45.8996L262.2 121.1" stroke="#293D39" stroke-miterlimit="10"/>
<path d="M194.3 41.2997C194.6 41.9997 194 42.7997 193.2 42.6997C189.3 42.1997 179.3 39.5997 169.6 26.9997C161.5 16.4997 157.4 11.1997 155.5 8.69974C155 7.99974 155.5 6.99973 156.4 7.09973C161.7 7.59973 174.9 9.29973 180.6 16.0997C186.7 22.9997 192.4 36.6997 194.3 41.2997Z" fill="#C2C155"/>
<path d="M157.2 8.49976C157.2 8.49976 174.7 18.5998 193.1 41.3997" stroke="#293D39" stroke-miterlimit="10"/>
<path d="M245.399 120C245.999 119.6 245.999 118.6 245.299 118.2C241.799 116.5 231.999 113.1 216.899 118.2C204.299 122.4 197.899 124.6 194.999 125.6C194.199 125.9 194.099 127 194.799 127.5C199.499 130.1 211.399 135.9 219.899 133.5C228.899 131 241.299 122.8 245.399 120Z" fill="#C2C155"/>
<path d="M231.5 99.6C232.1 99.2 232.1 98.2 231.4 97.8C227.9 96.1 218.1 92.7 203 97.8C190.4 102 184 104.2 181.1 105.2C180.3 105.5 180.2 106.6 180.9 107.1C185.6 109.7 197.5 115.5 206 113.1C215 110.5 227.5 102.4 231.5 99.6Z" fill="#C2C155"/>
<path d="M182.5 106.2C182.5 106.2 202.7 107.6 230.7 98.7998" stroke="#293D39" stroke-miterlimit="10"/>
<path d="M214.499 83.0998C215.199 82.6998 215.199 81.7998 214.599 81.2998C211.299 79.1998 201.899 74.7998 186.399 78.2998C173.499 81.1998 166.899 82.6998 163.899 83.3998C162.999 83.5998 162.799 84.6998 163.499 85.1998C167.899 88.1998 179.099 95.2998 187.899 93.7998C196.999 92.1998 210.199 85.3998 214.499 83.0998Z" fill="#C2C155"/>
<path d="M164.999 84.5998C164.999 84.5998 184.899 87.9998 213.699 82.2998" stroke="#293D39" stroke-miterlimit="10"/>
<path d="M200.9 57.9999C201.8 57.8999 202.2 56.7999 201.7 56.0999C198.9 52.4999 190.4 43.8999 172 41.3999C156.7 39.3999 148.9 38.2999 145.3 37.8999C144.3 37.7999 143.6 38.8999 144.2 39.7999C147.7 44.8999 157.2 57.0999 167.4 58.9999C178 60.9999 195.2 58.7999 200.9 57.9999Z" fill="#C2C155"/>
<path d="M200.3 56.7999C166.6 51.4999 146.1 39.7 146.1 39.7" stroke="#293D39" stroke-miterlimit="10"/>
<path d="M1.59961 265.8L18.7996 275L6.29962 256.2C6.29962 256.2 11.3997 248.4 15.8997 245C20.4997 241.6 20.4996 241.6 20.4996 241.6L33.7996 261.8L30.9996 235.5C30.9996 235.5 45.5996 231 60.7996 241.5L48.3997 272L71.3997 248.4C71.3997 248.4 85.3997 258 91.3997 270.1L66.4996 285.2L96.0996 279.2C96.0996 279.2 107.2 297.1 99.9996 314.1L82.2996 311.6L89.6996 325.1C89.6996 325.1 74.8996 328 66.6996 326.7L61.1996 312.5L56.2996 324.6C56.2996 324.6 49.0996 322.4 41.4996 317.5C33.8996 312.7 34.4996 313.6 34.4996 313.6L35.8997 307.5L30.6996 310.5C30.7996 310.4 5.29961 299.6 1.59961 265.8Z" fill="#374F3F"/>
<path d="M13.6992 247.5L35.1992 295.8L46.9992 235.4" stroke="#659549" stroke-width="0.5" stroke-miterlimit="10"/>
<path d="M79.4992 255.2L35.1992 295.8L100.799 297.2" stroke="#659549" stroke-width="0.5" stroke-miterlimit="10"/>
<path d="M99.2998 285.3L35.1998 295.8L3.2998 276" stroke="#659549" stroke-width="0.5" stroke-miterlimit="10"/>
<path d="M128.757 182.008C128.757 182.008 120.408 178.469 118.502 167.488C116.233 154.328 114.055 136.994 93 128.372C93 128.372 109.427 138.446 112.24 168.94C114.055 188.27 127.941 195.531 127.941 195.531L128.757 182.008Z" fill="#754F29"/>
<path d="M174.861 148.247C174.861 148.247 167.873 145.615 166.24 150.607C166.058 151.242 165.967 152.513 165.967 154.328C165.967 167.124 170.596 201.611 172.774 205.967C174.226 208.871 172.139 211.685 170.414 214.68C169.235 216.767 168.236 219.036 169.053 221.305H155.894C155.894 221.305 153.171 220.125 159.342 214.226C159.887 213.772 160.25 212.592 160.613 210.868C162.972 197.709 159.07 153.148 146.364 147.43C146.364 147.43 148.089 133.272 160.522 130.187C172.865 127.283 174.861 148.247 174.861 148.247Z" fill="#754F29"/>
<path d="M232.218 214.771C235.576 212.23 241.838 187.363 239.206 173.659C236.574 159.864 224.141 141.441 220.783 138.264C208.713 127.011 194.101 115.122 195.644 106.228C198.367 89.9826 223.778 82.7222 240.477 97.3338C249.28 105.048 257.267 124.016 248.463 132.91C239.66 141.804 255.089 163.222 255.905 169.575C256.994 177.834 242.746 194.442 244.47 199.887C246.194 205.332 247.737 207.692 247.374 209.779C247.102 211.867 241.838 216.132 241.566 221.305H230.131C230.222 221.487 228.951 217.312 232.218 214.771Z" fill="#754F29"/>
<path d="M230.403 169.575C229.858 177.834 212.161 194.442 212.796 199.887C213.432 205.333 214.43 207.692 213.704 209.78C213.25 211.141 210.528 213.41 208.259 216.223C207.079 217.766 205.99 219.49 205.536 221.305H194.101C194.101 221.305 193.647 217.131 197.55 214.68C198.366 214.136 199.455 212.684 200.726 210.596C205.627 202.428 212.887 184.459 212.978 173.477C213.159 159.683 204.084 141.532 201.724 138.083C201.724 138.083 191.197 141.622 189.563 146.705C189.382 147.34 189.291 148.611 189.291 150.426C189.291 163.222 193.919 201.43 196.098 205.877C197.55 208.781 195.462 211.595 193.738 214.59C192.558 216.677 191.56 218.946 192.377 221.215H179.217C179.217 221.215 176.494 220.035 182.666 214.136C183.21 213.682 183.573 212.502 183.936 210.778C186.296 197.891 182.575 154.873 170.414 147.703C170.142 147.522 169.96 147.431 169.688 147.34C154.713 140.533 143.823 182.825 143.823 182.825C143.823 182.825 148.996 188.724 145.819 197.255C144.004 202.156 143.823 207.964 142.643 215.406C141.826 220.579 135.292 222.758 134.202 220.216C134.112 220.035 134.112 219.853 134.021 219.672C133.386 213.954 127.487 207.783 126.579 198.798C125.672 189.813 128.848 181.918 128.848 181.918C131.208 149.972 145.547 107.589 152.172 104.322C171.775 94.702 181.123 91.5256 191.197 86.6248C201.18 81.724 226.773 82.5408 240.568 97.1524C247.828 104.867 241.203 123.834 230.494 132.638C219.694 141.804 230.857 163.222 230.403 169.575Z" fill="#AE6D3D"/>
<path d="M170.142 147.975C169.87 147.794 169.688 147.703 169.416 147.612C154.441 140.805 143.551 183.097 143.551 183.097C143.551 183.097 148.724 188.996 145.547 197.527C143.732 202.428 143.551 208.236 142.371 215.678C141.554 220.851 135.02 223.03 133.931 220.488V220.398C135.292 217.221 134.657 213.409 133.386 210.233C132.025 206.966 130.119 204.062 128.758 200.795C128.031 199.07 127.578 196.983 128.576 195.44C129.574 193.988 131.662 193.625 133.205 194.26C134.838 194.805 136.109 196.166 137.107 197.618C139.194 200.613 140.465 204.152 140.646 207.783C142.915 203.245 143.823 196.983 142.825 191.991C141.826 187 141.009 183.46 136.29 179.558C135.473 178.832 137.833 177.833 139.013 176.744C141.191 174.748 141.826 170.845 142.915 168.032C147.272 156.96 150.72 147.884 163.335 143.8C166.149 144.345 168.145 145.978 170.142 147.975Z" fill="#F3DFC9"/>
<path d="M199.002 133.454C199.002 133.454 196.279 134.18 193.647 135.995C191.015 137.811 188.293 140.533 187.476 138.264C186.659 135.995 193.647 131.367 197.459 130.369L199.002 133.454Z" fill="black"/>
<path d="M201.634 138.264C201.634 138.264 191.106 141.804 189.472 146.886C189.291 147.521 189.2 148.792 189.2 150.607L189.109 150.698C189.109 150.698 189.019 148.882 188.656 146.523C188.202 143.528 187.839 140.079 187.839 140.079C187.839 140.079 194.01 134.906 198.366 133.454L201.634 138.264Z" fill="#F3DFC9"/>
<path d="M192.377 221.396H179.217C179.217 221.396 176.495 220.216 182.666 214.317L192.377 221.396Z" fill="black"/>
<path d="M192.377 221.396L182.575 214.317C183.12 213.864 183.483 212.684 183.846 210.959L193.738 214.68C192.468 216.859 191.56 219.037 192.377 221.396Z" fill="#F3DFC9"/>
<path d="M205.536 221.396H194.101C194.101 221.396 193.647 217.221 197.55 214.771L205.536 221.396Z" fill="black"/>
<path d="M128.758 182.008C128.758 182.008 121.044 178.197 121.77 169.031C121.77 169.031 131.208 168.395 128.758 182.008Z" fill="#F3DFC9"/>
<path d="M128.122 179.467C128.122 179.467 124.038 177.834 122.949 170.573C123.04 170.483 129.574 174.476 128.122 179.467Z" fill="#754F29"/>
<path d="M201.635 138.265C198.731 133.364 196.099 128.554 194.738 123.018C193.83 119.388 193.195 115.576 193.83 111.855C194.465 108.134 196.28 104.504 199.457 102.507" stroke="#844D14" stroke-width="0.5" stroke-miterlimit="10" stroke-linecap="round" stroke-linejoin="round"/>
<path d="M184.663 132.457C186.66 135.542 187.93 138.991 188.384 142.621C188.747 145.616 188.656 148.611 189.382 151.606" stroke="#844D14" stroke-width="0.5" stroke-miterlimit="10" stroke-linecap="round" stroke-linejoin="round"/>
<path d="M159.979 142.53C165.152 143.982 169.962 146.796 173.683 150.607" stroke="#844D14" stroke-width="0.5" stroke-miterlimit="10" stroke-linecap="round" stroke-linejoin="round"/>
<path d="M135.746 179.467C138.923 179.013 142.28 180.556 143.914 183.279" stroke="#844D14" stroke-width="0.5" stroke-miterlimit="10" stroke-linecap="round" stroke-linejoin="round"/>
<path d="M133.114 203.608C135.383 206.966 136.291 211.232 136.291 214.862" stroke="#844D14" stroke-width="0.5" stroke-miterlimit="10" stroke-linecap="round" stroke-linejoin="round"/>
<path d="M151.537 104.685C154.895 103.324 158.707 103.506 162.246 103.869C163.971 104.05 165.876 104.232 167.238 103.233" stroke="#844D14" stroke-width="0.5" stroke-miterlimit="10" stroke-linecap="round" stroke-linejoin="round"/>
<path d="M160.431 99.3306C163.516 99.3306 166.511 99.3306 169.597 99.3306" stroke="#CF8048" stroke-width="0.5" stroke-miterlimit="10" stroke-linecap="round" stroke-linejoin="round"/>
<path d="M167.601 96.6987C169.869 96.6987 172.229 96.6987 174.498 96.6987" stroke="#CF8048" stroke-width="0.5" stroke-miterlimit="10" stroke-linecap="round" stroke-linejoin="round"/>
<path d="M177.13 92.5239C178.491 92.8869 179.943 92.9777 181.395 92.8869" stroke="#CF8048" stroke-width="0.5" stroke-miterlimit="10" stroke-linecap="round" stroke-linejoin="round"/>
<path d="M146.999 151.605C151.083 151.696 155.076 151.878 159.16 151.968" stroke="#CF8048" stroke-width="0.5" stroke-miterlimit="10" stroke-linecap="round" stroke-linejoin="round"/>
<path d="M145.003 158.049C147.544 156.96 150.357 156.416 153.171 156.416" stroke="#CF8048" stroke-width="0.5" stroke-miterlimit="10" stroke-linecap="round" stroke-linejoin="round"/>
<path d="M142.733 162.95C143.732 162.859 144.73 162.768 145.728 162.587" stroke="#CF8048" stroke-width="0.5" stroke-miterlimit="10" stroke-linecap="round" stroke-linejoin="round"/>
<path d="M176.495 148.157C179.762 150.426 182.394 153.693 183.937 157.414" stroke="#CF8048" stroke-width="0.5" stroke-miterlimit="10" stroke-linecap="round" stroke-linejoin="round"/>
<path d="M181.032 148.883C182.303 149.064 183.483 149.609 184.39 150.426" stroke="#CF8048" stroke-width="0.5" stroke-miterlimit="10" stroke-linecap="round" stroke-linejoin="round"/>
<path d="M169.688 120.204C176.314 121.202 182.666 123.744 188.112 127.646" stroke="#CF8048" stroke-width="0.5" stroke-miterlimit="10" stroke-linecap="round" stroke-linejoin="round"/>
<path d="M180.034 115.576C184.209 116.12 187.748 118.661 191.106 121.203" stroke="#CF8048" stroke-width="0.5" stroke-miterlimit="10" stroke-linecap="round" stroke-linejoin="round"/>
<path d="M187.657 112.944C188.837 113.488 189.926 114.305 190.743 115.213" stroke="#CF8048" stroke-width="0.5" stroke-miterlimit="10" stroke-linecap="round" stroke-linejoin="round"/>
<path d="M133.331 204.253C133.713 204.13 133.923 203.721 133.801 203.34C133.678 202.958 133.269 202.747 132.888 202.87C132.506 202.992 132.296 203.401 132.418 203.783C132.541 204.165 132.949 204.375 133.331 204.253Z" fill="black"/>
<path d="M132.842 221.215C132.569 221.033 134.294 218.674 134.566 218.764C134.838 218.855 135.927 221.215 135.473 221.668C135.02 222.122 133.114 221.487 132.842 221.215Z" fill="black"/>
<path d="M259.203 283.796C259.203 283.796 255.824 184.295 293 150C293 150 256.357 174.675 247.108 222.154C247.108 222.154 247.819 193.827 238.214 177.169C238.214 177.169 231.188 197.835 233.589 204.071C233.589 204.071 213.845 167.727 217.135 158.641C217.135 158.641 212.155 173.606 213.933 204.071C215.801 234.447 215.801 234.447 215.801 234.447C215.801 234.447 195.345 214.582 184.673 190.62C174 166.658 174 166.658 174 166.658C174 166.658 178.091 227.944 182.805 240.593C187.43 253.242 197.124 296 197.124 296L260.804 285.756" fill="#C2C155"/>
</svg>
