<svg width="390" height="133" viewBox="0 0 390 133" fill="none" xmlns="http://www.w3.org/2000/svg">
<path d="M48.8636 22.1958C48.8636 22.1958 24.5636 29.7832 19 48.3846C19 48.3846 27.0182 53.8508 42.1545 51.1585C57.2909 48.4662 57.2909 48.4662 57.2909 48.4662C57.2909 48.4662 52.5455 57.6853 55.1636 68.373C55.1636 68.373 65.8818 63.1515 69.8091 57.5221C73.7364 51.8928 73.7364 51.8928 73.7364 51.8928C73.7364 51.8928 78.6455 63.9674 82.3273 72.289C82.3273 72.289 96.5636 59.3986 102.536 51.4848C108.509 43.5711 108.509 43.5711 108.509 43.5711C108.509 43.5711 103.6 64.9464 109.736 78C109.736 78 122.173 68.373 126.018 61.683C129.864 55.0746 129.864 55.0746 129.864 55.0746C129.864 55.0746 124.791 57.2774 135.345 65.5991C145.818 73.9207 143.364 69.4336 143.364 69.4336C143.364 69.4336 152.2 63.5594 151.955 57.6037C151.709 51.648 151.955 39.3287 151.955 39.3287C151.955 39.3287 155.718 49.1189 165.127 61.7646C174.536 74.3287 175.927 75.0629 175.927 75.0629C175.927 75.0629 194.091 56.8695 194.664 46.7529C194.909 42.1026 195.073 39.5734 195.155 38.2681C195.236 36.6364 195.236 36.6364 195.236 36.6364C195.236 36.6364 207.427 58.0117 216.345 61.7646C225.264 65.5175 225.264 65.5175 225.264 65.5175C225.264 65.5175 229.436 55.972 233.691 51.1585C237.864 46.345 237.864 46.345 237.864 46.345C237.864 46.345 234.018 67.965 238.191 78C238.191 78 252.836 73.5944 261.755 66.2517C270.673 58.9091 280.164 52.5454 289.082 30.2727C298 8 298 8 298 8L48.8636 22.1958Z" fill="#315618"/>
<path d="M134.864 0.195805C134.864 0.195805 110.564 7.78322 105 26.3846C105 26.3846 113.018 31.8508 128.155 29.1585C143.291 26.4662 143.291 26.4662 143.291 26.4662C143.291 26.4662 138.545 35.6853 141.164 46.373C141.164 46.373 151.882 41.1515 155.809 35.5221C159.736 29.8928 159.736 29.8928 159.736 29.8928C159.736 29.8928 164.645 41.9674 168.327 50.289C168.327 50.289 182.564 37.3986 188.536 29.4848C194.509 21.5711 194.509 21.5711 194.509 21.5711C194.509 21.5711 189.6 42.9464 195.736 56C195.736 56 208.173 46.373 212.018 39.683C215.864 33.0746 215.864 33.0746 215.864 33.0746C215.864 33.0746 210.791 35.2774 221.345 43.5991C231.818 51.9207 229.364 47.4336 229.364 47.4336C229.364 47.4336 238.2 41.5594 237.955 35.6037C237.709 29.648 237.955 17.3287 237.955 17.3287C237.955 17.3287 241.718 27.1189 251.127 39.7646C260.536 52.3287 261.927 53.0629 261.927 53.0629C261.927 53.0629 280.091 34.8695 280.664 24.7529C280.909 20.1026 281.073 17.5734 281.155 16.2681C281.236 14.6364 281.236 14.6364 281.236 14.6364C281.236 14.6364 293.427 36.0117 302.345 39.7646C311.264 43.5175 311.264 43.5175 311.264 43.5175C311.264 43.5175 315.436 33.972 319.691 29.1585C323.864 24.345 323.864 24.345 323.864 24.345C323.864 24.345 320.018 45.965 324.191 56C324.191 56 338.836 51.5944 347.755 44.2517C356.673 36.9091 366.164 30.5455 375.082 8.27273C384 -14 384 -14 384 -14L134.864 0.195805Z" fill="#488320"/>
<path d="M278.864 0.398597C278.864 0.398597 254.564 14.0944 249 32.9615C249 32.9615 257.018 38.5058 272.155 35.7751C287.291 33.0443 287.291 33.0443 287.291 33.0443C287.291 33.0443 282.545 42.3951 285.164 53.2354C285.164 53.2354 295.882 47.9394 299.809 42.2296C303.736 36.5198 303.736 36.5198 303.736 36.5198C303.736 36.5198 308.645 48.7669 312.327 57.2075C312.327 57.2075 326.564 44.1329 332.536 36.1061C338.509 28.0793 338.509 28.0793 338.509 28.0793C338.509 28.0793 333.6 49.7599 339.736 63C339.736 63 352.173 53.2354 356.018 46.4499C359.864 39.7471 359.864 39.7471 359.864 39.7471C359.864 39.7471 354.791 41.9813 365.345 50.4219C375.818 58.8625 373.364 54.3112 373.364 54.3112C373.364 54.3112 382.2 48.3531 381.955 42.3124C381.709 36.2716 381.955 23.7762 381.955 23.7762C381.955 23.7762 385.718 33.7063 395.127 46.5326C404.536 59.2762 405.927 60.021 405.927 60.021C405.927 60.021 424.091 41.5676 424.664 31.3065C424.909 26.5897 425.073 24.0245 425.155 22.7005C425.236 21.0455 425.236 21.0455 425.236 21.0455C425.236 21.0455 437.427 42.7261 446.345 46.5326C455.264 50.3392 455.264 50.3392 455.264 50.3392C455.264 50.3392 459.436 40.6573 463.691 35.7751C467.864 30.8928 467.864 30.8928 467.864 30.8928C467.864 30.8928 464.018 52.8217 468.191 63C468.191 63 482.836 58.5315 491.755 51.0839C500.673 43.6364 510.164 37.1818 519.082 14.5909C528 -8 528 -8 528 -8L278.864 0.398597Z" fill="#68A445"/>
<path d="M-92.9231 24.2986C-92.9231 24.2986 -114.777 44.229 -116 63.6246C-116 63.6246 -106.949 67.1436 -92.9231 61.0876C-78.8161 55.0316 -78.8161 55.0316 -78.8161 55.0316C-78.8161 55.0316 -81.3439 65.0976 -76.3698 75C-76.3698 75 -67.1553 67.4709 -64.5459 61.0876C-62.0181 54.7042 -62.0181 54.7042 -62.0181 54.7042C-62.0181 54.7042 -54.5976 65.425 -49.1341 72.7085C-49.1341 72.7085 -38.2073 56.832 -34.2116 47.748C-30.216 38.664 -30.216 38.664 -30.216 38.664C-30.216 38.664 -30.1345 60.6784 -21.2462 72.0539C-21.2462 72.0539 -11.2979 59.7782 -9.09617 52.4128C-6.81294 45.0474 -6.81296 45.0474 -6.81296 45.0474C-6.81296 45.0474 -11.2163 48.3209 0.85215 54.0495C12.9206 59.7782 9.49579 56.0136 9.49579 56.0136C9.49579 56.0136 16.7532 48.2391 15.1223 42.5104C13.4915 36.7818 11.0451 24.6698 11.0451 24.6698C11.0451 24.6698 16.9163 33.4264 28.8217 43.5743C40.727 53.804 42.2764 54.1314 42.2764 54.1314C42.2764 54.1314 55.8126 32.2807 54.1002 22.2147C53.2848 17.6317 52.8771 15.0948 52.6324 13.7854C52.3878 12.1486 52.3878 12.1486 52.3878 12.1486C52.3878 12.1486 69.0227 30.3166 78.5633 31.9533C88.104 33.5901 88.104 33.5901 88.104 33.5901C88.104 33.5901 90.061 23.2785 93.0781 17.6317C96.0952 11.9849 96.0952 11.9849 96.0952 11.9849C96.0952 11.9849 97.3184 33.9993 103.597 42.8378C103.597 42.8378 116.807 35.2269 123.902 26.061C130.914 16.8952 138.661 8.4659 142.331 -15.267C146 -39 146 -39 146 -39L-92.9231 24.2986Z" fill="#68A445"/>
<path d="M17.5542 -3.634C63.2308 47.9258 136.689 106.758 209.821 92.6218C224.856 89.5985 239.727 85.1044 254.108 79.6297C293.248 64.4314 329.119 41.3889 360.986 14.0156C367.687 8.21412 374.305 2.24921 380.434 -4.12427L382.231 -2.57176C339.006 45.1476 280.664 83.0616 217.665 97.6062C156.218 112.886 96.4056 77.0967 52.8535 36.5679C39.8614 24.3112 27.523 11.3191 16.5737 -2.8986L17.5542 -3.634Z" fill="#2B5048"/>
<path d="M201.324 -27.0852C246.918 24.4746 320.377 83.3067 393.59 69.1706C408.625 66.1473 423.496 61.6532 437.878 56.1785C477.017 40.9803 512.888 17.9377 544.756 -9.43555C551.456 -15.237 558.075 -21.202 564.203 -27.5754L566.001 -26.0229C522.857 21.6147 464.515 59.447 401.516 74.0733C340.069 89.3533 280.257 53.5638 236.705 13.035C223.712 0.778349 211.374 -12.2137 200.425 -26.4315C200.343 -26.3498 201.324 -27.0852 201.324 -27.0852Z" fill="#68A445"/>
<path d="M-198.602 -28.8323C-152.109 23.7897 -76.2805 84.1743 -1.75992 66.443C69.0837 49.5288 133.064 -16.739 174.818 -74.0186L176.779 -72.7112C174.164 -68.5439 171.468 -64.5401 168.69 -60.6179C127.589 -3.5835 70.1459 55.4937 -0.207413 72.8165C-59.5297 86.7074 -117.3 53.1241 -159.871 14.4747C-174.171 1.31917 -187.653 -12.7352 -199.501 -28.0969C-199.583 -28.0969 -198.602 -28.8323 -198.602 -28.8323Z" fill="#68A445"/>
<path d="M287.4 12C285.2 12.1 283.3 13.5 282.1 15.3C280.9 17.1 280.3 19.2 279.9 21.3C279.4 24 279.1 26.8 279 29.6C284.5 28.5 289.4 23.6 290.2 18C290.6 15.3 289.7 13.5 287.4 12Z" fill="#C2C155"/>
<path d="M27.3529 71.6422C26.4983 74.1108 27.2752 76.9652 28.8291 79.1253C30.3053 81.2854 32.5584 82.9055 34.7338 84.2941C37.6084 86.1456 40.6385 87.6885 43.7462 89C44.9893 82.2112 41.5708 74.4966 35.5884 71.1022C32.6361 69.4821 30.0722 69.6364 27.3529 71.6422Z" fill="#527F34"/>
<path d="M328.343 111C325.679 111.157 323.328 112.886 321.839 115.164C320.351 117.364 319.645 120.036 319.097 122.707C318.47 126.086 318.078 129.543 318 133C324.895 131.586 330.929 125.614 331.869 118.621C332.418 115.164 331.242 112.807 328.343 111Z" fill="#527F34"/>
</svg>
