<svg width="2.22em" height="1em" viewBox="0 0 142 64" fill="none" xmlns="http://www.w3.org/2000/svg">
    <path
        d="M141.594 39C141.254 37.331 140.595 35.7431 139.654 34.3229C138.319 32.3354 136.113 31.0917 134.979 28.95C134.311 27.675 134.194 26.1688 134.394 24.7438C134.629 23.0604 135.373 21.5583 135.796 19.9292C136.073 18.8688 135.923 18.0542 134.617 18.2458C131.644 18.6625 129.971 22.6542 129.454 25.2021C128.509 29.8625 132.717 33.3813 132.554 37.9646C132.346 43.8458 128.738 49.8396 122.598 50.8813C116.765 51.8729 110.842 47.8896 111.129 41.6354C111.242 39.3134 112.257 37.1273 113.959 35.5435C115.661 33.9596 117.914 33.1036 120.238 33.158C122.562 33.2123 124.773 34.1728 126.399 35.8345C128.024 37.4962 128.936 39.7274 128.94 42.0521C128.94 42.4417 128.894 42.8375 128.89 43.2229C130.432 41.3084 130.973 38.1604 130.39 35.8584C129.921 34.0084 128.75 32.3396 128.2 30.5104C127.321 27.5938 126.817 24.8563 128.763 22.0125C126.34 20.9521 123.607 20.1938 120.927 20.125C108.596 19.8063 98.219 29.5 98.094 41.8417C98.0475 46.157 99.2764 50.39 101.626 54.0096C103.977 57.6291 107.343 60.4741 111.304 62.1875C115.265 63.9009 119.644 64.4064 123.891 63.6407C128.138 62.875 132.064 60.8721 135.177 57.8834C139.682 53.5729 142.392 47.05 141.861 40.8C141.808 40.1952 141.719 39.5942 141.594 39Z"
        fill="url(#paint0_linear_4913_4772)" />
    <path
        d="M51.6462 16.4875C48.4517 20.0986 44.5913 24.9764 40.0649 31.1208C33.776 39.6333 29.8594 44.8681 28.3149 46.825C30.6135 46.75 32.5156 46.7125 34.0212 46.7125C35.5267 46.7125 37.7205 46.9854 40.6024 47.5312C43.4843 48.0785 45.6593 48.3514 47.1274 48.35C49.3871 48.35 51.2621 49.0563 52.7524 50.4688C54.2427 51.8813 54.9864 53.6611 54.9837 55.8083C54.9837 57.9542 54.2496 59.7243 52.7816 61.1187C51.3135 62.5132 49.4302 63.2076 47.1316 63.2021C45.6246 63.2021 43.4309 62.9389 40.5503 62.4125C37.6698 61.8861 35.4948 61.6222 34.0253 61.6208C25.5878 61.6208 17.6975 62.3153 10.3545 63.7042C9.53769 63.8797 8.70632 63.9787 7.87116 64C5.79893 64 4.0288 63.4347 2.56074 62.3042C0.902406 61.0625 0.0732422 59.4243 0.0732422 57.3896C0.0732422 54.9785 1.26005 52.775 3.63366 50.7792C13.01 42.8333 22.8212 31.2146 33.067 15.9229C30.7309 16.0354 28.4899 16.0917 26.3441 16.0917C20.4846 16.0828 14.6329 15.6651 8.83157 14.8417C4.19824 14.2028 1.88157 11.7549 1.88157 7.49792C1.86602 6.5171 2.04757 5.54315 2.41545 4.63381C2.78334 3.72447 3.33008 2.89826 4.02324 2.20417C5.45241 0.734723 7.2788 0 9.50241 0C11.3482 0 14.1448 0.197916 17.892 0.59375C21.6392 0.989583 24.4545 1.1875 26.3378 1.1875C28.8989 1.1875 32.7406 1.02708 37.8628 0.70625C42.985 0.385417 46.8267 0.225695 49.3878 0.227084C54.0948 0.227084 56.4482 2.14792 56.4482 5.98958C56.4482 9.3743 54.8475 12.8736 51.6462 16.4875Z"
        fill="url(#paint1_linear_4913_4772)" />
    <path
        d="M95.2445 42.0625C95.242 39.2344 95.7283 36.4271 96.682 33.7646C94.7593 29.0668 91.2648 25.1826 86.7957 22.7756C82.3266 20.3687 77.1603 19.5885 72.1797 20.5683C67.1991 21.5481 62.7134 24.2271 59.4891 28.1476C56.2647 32.068 54.502 36.9865 54.502 42.0625C54.502 47.1386 56.2647 52.0571 59.4891 55.9775C62.7134 59.898 67.1991 62.577 72.1797 63.5568C77.1603 64.5366 82.3266 63.7564 86.7957 61.3494C91.2648 58.9425 94.7593 55.0582 96.682 50.3605C95.7285 47.6979 95.2422 44.8907 95.2445 42.0625ZM76.4133 50.9729C74.6509 50.9734 72.9279 50.4511 71.4624 49.4723C69.9968 48.4934 68.8544 47.102 68.1797 45.4738C67.5049 43.8457 67.3282 42.0541 67.6717 40.3255C68.0153 38.5969 68.8638 37.009 70.1098 35.7627C71.3559 34.5163 72.9436 33.6675 74.6721 33.3235C76.4006 32.9795 78.1923 33.1558 79.8206 33.8302C81.4489 34.5045 82.8406 35.6466 83.8198 37.112C84.799 38.5773 85.3216 40.3001 85.3216 42.0625C85.3216 44.4254 84.3831 46.6914 82.7126 48.3624C81.042 50.0334 78.7761 50.9724 76.4133 50.9729Z"
        fill="url(#paint2_linear_4913_4772)" />
    <defs>
        <linearGradient id="paint0_linear_4913_4772" x1="110.592" y1="22.2771" x2="132.475" y2="60.1792"
            gradientUnits="userSpaceOnUse">
            <stop stop-color="#DCF45D" />
            <stop offset="0.6" stop-color="#2BBD34" />
        </linearGradient>
        <linearGradient id="paint1_linear_4913_4772" x1="9.32324" y1="-1.1875" x2="47.2691" y2="64.5375"
            gradientUnits="userSpaceOnUse">
            <stop stop-color="#DCF45D" />
            <stop offset="0.6" stop-color="#2BBD34" />
        </linearGradient>
        <linearGradient id="paint2_linear_4913_4772" x1="65.4466" y1="23.0875" x2="87.357" y2="61.0375"
            gradientUnits="userSpaceOnUse">
            <stop stop-color="#DCF45D" />
            <stop offset="0.6" stop-color="#2BBD34" />
        </linearGradient>
    </defs>
</svg>